<svg id="图层_1" data-name="图层 1" xmlns="http://www.w3.org/2000/svg" viewBox="0 0 40 40"><defs><style>.cls-1{fill:#999;}</style></defs><title>android</title><path class="cls-1" d="M13.4,26.5a1.09,1.09,0,0,0,1.1,1.08h1.1v3.79a1.65,1.65,0,0,0,3.3,0V27.58h2.2v3.79a1.65,1.65,0,0,0,3.3,0V27.58h1.1a1.09,1.09,0,0,0,1.1-1.08V15.67H13.4ZM10.65,15.67A1.64,1.64,0,0,0,9,17.29v7.58a1.65,1.65,0,0,0,3.3,0V17.29A1.64,1.64,0,0,0,10.65,15.67Zm18.7,0a1.64,1.64,0,0,0-1.65,1.62v7.58a1.65,1.65,0,0,0,3.3,0V17.29A1.64,1.64,0,0,0,29.35,15.67ZM23.88,9.34l1.44-1.41a.53.53,0,0,0,0-.76.55.55,0,0,0-.78,0l-1.63,1.6a6.63,6.63,0,0,0-5.85,0L15.43,7.16a.55.55,0,0,0-.78,0,.53.53,0,0,0,0,.76L16.1,9.34a6.48,6.48,0,0,0-2.7,5.24H26.6A6.45,6.45,0,0,0,23.88,9.34ZM17.8,12.42H16.7V11.33h1.1Zm5.5,0H22.2V11.33h1.1Z"/></svg>