<?xml version="1.0" standalone="no"?><!DOCTYPE svg PUBLIC "-//W3C//DTD SVG 1.1//EN" "http://www.w3.org/Graphics/SVG/1.1/DTD/svg11.dtd"><svg t="1530248623498" class="icon" style="" viewBox="0 0 1025 1024" version="1.1" xmlns="http://www.w3.org/2000/svg" p-id="2395" xmlns:xlink="http://www.w3.org/1999/xlink" width="25.0244140625" height="25"><defs><style type="text/css"></style></defs><path d="M591.36 768V365.226667c0-47.786667 78.506667-47.786667 78.506667 0v402.773333c3.413333 47.786667-78.506667 47.786667-78.506667 0z m-238.933333 0V365.226667c0-47.786667 78.506667-47.786667 78.506666 0v402.773333c3.413333 47.786667-78.506667 47.786667-78.506666 0zM987.306667 184.32h-157.013334V109.226667c0-61.44-54.613333-109.226667-119.466666-109.226667H314.88c-68.266667 0-119.466667 47.786667-119.466667 109.226667v71.68H38.4c-51.2 0-51.2 71.68 0 71.68h948.906667c51.2 3.413333 51.2-68.266667 0-68.266667zM273.92 109.226667c0-20.48 17.066667-37.546667 40.96-37.546667h399.36c20.48 0 37.546667 13.653333 37.546667 37.546667v71.68H273.92V109.226667zM792.746667 1024H232.96c-64.853333 0-119.466667-47.786667-119.466667-109.226667V365.226667c0-20.48 17.066667-37.546667 40.96-37.546667 20.48 0 40.96 13.653333 40.96 37.546667v549.546666c0 20.48 17.066667 37.546667 40.96 37.546667h556.373334c20.48 0 40.96-17.066667 40.96-37.546667v-546.133333c0-47.786667 78.506667-47.786667 78.506666 0v546.133333c0 61.44-54.613333 109.226667-119.466666 109.226667z" p-id="2396"></path></svg>