<svg id="图层_1" data-name="图层 1" xmlns="http://www.w3.org/2000/svg" viewBox="0 0 36 30"><defs><style>.cls-1{fill:#456eff;}</style></defs><title>下载app</title><path class="cls-1" d="M23.42,27.29a.39.39,0,0,1-.39.39H14.44a.39.39,0,1,1,0-.77H23A.39.39,0,0,1,23.42,27.29Z"/><path class="cls-1" d="M23.42,1.39v.15a1.94,1.94,0,0,1-1.94,1.94H16A1.94,1.94,0,0,1,14,1.55V1.39Z"/><path class="cls-1" d="M23.42,27.29a.39.39,0,0,1-.39.39H14.44a.39.39,0,1,1,0-.77H23A.39.39,0,0,1,23.42,27.29Z"/><path class="cls-1" d="M23.42,27.29a.39.39,0,0,1-.39.39H14.44a.39.39,0,1,1,0-.77H23A.39.39,0,0,1,23.42,27.29Z"/><path class="cls-1" d="M24.27,0H13.2A3.25,3.25,0,0,0,9.95,3.25v23.5A3.25,3.25,0,0,0,13.2,30H24.27a3.25,3.25,0,0,0,3.25-3.25V3.25A3.25,3.25,0,0,0,24.27,0Zm1.86,26.75a1.86,1.86,0,0,1-1.86,1.86H13.2a1.86,1.86,0,0,1-1.86-1.86V3.25A1.86,1.86,0,0,1,13.2,1.39H14v.15A1.94,1.94,0,0,0,16,3.48h5.5a1.94,1.94,0,0,0,1.94-1.94V1.39h.85a1.86,1.86,0,0,1,1.86,1.86Z"/><path class="cls-1" d="M23.42,1.39v.15a1.94,1.94,0,0,1-1.94,1.94H16A1.94,1.94,0,0,1,14,1.55V1.39Z"/><path class="cls-1" d="M23.42,27.29a.39.39,0,0,1-.39.39H14.44a.39.39,0,1,1,0-.77H23A.39.39,0,0,1,23.42,27.29Z"/><rect class="cls-1" y="8" width="7" height="1"/><rect class="cls-1" x="4" y="18" width="5" height="1"/><rect class="cls-1" x="4" y="18" width="5" height="1" transform="translate(25 12) rotate(90)"/><rect class="cls-1" y="8" width="7" height="1" transform="translate(12 5) rotate(90)"/><rect class="cls-1" x="29" y="3" width="7" height="1"/><rect class="cls-1" x="29" y="3" width="7" height="1" transform="translate(36 -29) rotate(90)"/></svg>