<?xml version="1.0" standalone="no"?><!DOCTYPE svg PUBLIC "-//W3C//DTD SVG 1.1//EN" "http://www.w3.org/Graphics/SVG/1.1/DTD/svg11.dtd"><svg t="1530248600902" class="icon" style="" viewBox="0 0 1024 1024" version="1.1" xmlns="http://www.w3.org/2000/svg" p-id="2273" xmlns:xlink="http://www.w3.org/1999/xlink" width="25" height="25"><defs><style type="text/css"></style></defs><path d="M880.64 1024H153.6c-37.546667 0-78.506667-17.066667-105.813333-44.373333-30.72-27.306667-47.786667-64.853333-47.786667-102.4V139.946667C0 102.4 17.066667 64.853333 51.2 40.96c27.306667-20.48 64.853333-34.133333 102.4-34.133333h395.946667c20.48 0 37.546667 17.066667 37.546666 34.133333s-17.066667 34.133333-37.546666 34.133333H153.6c-37.546667 3.413333-81.92 27.306667-81.92 64.853334v737.28c0 37.546667 40.96 78.506667 81.92 78.506666h727.04c37.546667 0 61.44-40.96 61.44-78.506666V498.346667c0-20.48 17.066667-34.133333 37.546667-34.133334s37.546667 17.066667 37.546666 34.133334v378.88c0 37.546667-10.24 71.68-34.133333 98.986666-27.306667 30.72-61.44 47.786667-102.4 47.786667z" p-id="2274"></path><path d="M498.346667 556.373333c-10.24 0-23.893333-3.413333-30.72-13.653333-17.066667-17.066667-17.066667-44.373333 0-61.44L945.493333 13.653333c17.066667-17.066667 47.786667-17.066667 64.853334 0s17.066667 44.373333 0 61.44L529.066667 542.72c-6.826667 10.24-20.48 13.653333-30.72 13.653333z" p-id="2275"></path></svg>