<svg id="图层_1" data-name="图层 1" xmlns="http://www.w3.org/2000/svg" viewBox="0 0 110 112"><defs><style>.cls-1{fill:#d0d9fb;}.cls-2{fill:#afc2f9;}.cls-3{fill:#456eff;}.cls-4{fill:#fff;}.cls-5,.cls-6,.cls-7{fill:none;stroke:#456eff;}.cls-5,.cls-6{stroke-linecap:round;stroke-linejoin:round;}.cls-5{stroke-width:3px;}.cls-6{stroke-width:3.04px;}.cls-7{stroke-miterlimit:10;stroke-width:3.07px;}</style></defs><title></title><path class="cls-1" d="M101.31,55.69V12.85a6.21,6.21,0,0,0-6.09-6.34H13a6.23,6.23,0,0,0-6.09,6.34V93.72c0,6.16,3.25,11.15,10.7,11.15h66.3c9.55,0,17.36-8.15,17.36-18.11V55.69Z"/><path class="cls-2" d="M101.31,90.95V19.46A5.91,5.91,0,0,0,100,15.72C89.42,69.16,17.92,98.49,10.33,101.46a5.89,5.89,0,0,0,5.36,3.42H84.47C87.73,104.88,101.31,94.2,101.31,90.95Z"/><path class="cls-3" d="M75.39,45.62H22.93a1.53,1.53,0,1,1,0-3H75.39a1.53,1.53,0,1,1,0,3Z"/><path class="cls-3" d="M53.18,62.87H22.93a1.53,1.53,0,1,1,0-3H53.18a1.53,1.53,0,1,1,0,3Z"/><path class="cls-3" d="M41.75,80.14H22.93a1.53,1.53,0,1,1,0-3H41.75a1.53,1.53,0,1,1,0,3Z"/><path class="cls-3" d="M83.24,26.37H22.1a1.68,1.68,0,0,1-1.81-1.5,1.68,1.68,0,0,1,1.81-1.5H83.22A1.68,1.68,0,0,1,85,24.87,1.65,1.65,0,0,1,83.24,26.37Z"/><path class="cls-4" d="M64.27,84a19.4,19.4,0,0,0,38.79,0v0a19.4,19.4,0,0,0-38.79,0Z"/><path class="cls-5" d="M76.82,107H11a9.17,9.17,0,0,1-9.15-9.13V10.65A9.17,9.17,0,0,1,11,1.51h82a9.17,9.17,0,0,1,9.15,9.13V66.88"/><path class="cls-2" d="M98.26,94.53l7.51,7.49a4.51,4.51,0,0,1-6.39,6.37l-7.66-7.64"/><path class="cls-6" d="M92.11,102.4h0l6.37,6.37a5.61,5.61,0,1,0,7.93-7.93L100,94.48h0"/><circle class="cls-7" cx="81.38" cy="82.01" r="22"/></svg>
