<svg id="图层_1" data-name="图层 1" xmlns="http://www.w3.org/2000/svg" viewBox="0 0 104 112"><defs><style>.cls-1{fill:#d0d9fb;}.cls-2{fill:#bbc9fa;}.cls-3{fill:#fff;}.cls-4{fill:#afc2f9;}.cls-5{fill:#456eff;}.cls-6{fill:#90adf4;}.cls-7{fill:none;stroke:#456eff;stroke-miterlimit:10;stroke-width:3px;}</style></defs><title></title><rect class="cls-1" x="6.99" y="7.45" width="84.86" height="102" rx="12" ry="12"/><path class="cls-2" d="M91.85,19.22V97.69A11.79,11.79,0,0,1,80.1,109.45H18.75A11.79,11.79,0,0,1,7,97.69V93.17a11.79,11.79,0,0,0,11.75,11.77h57.6A11.79,11.79,0,0,0,88.1,93.17V19.22A11.79,11.79,0,0,0,76.35,7.45H80.1A11.79,11.79,0,0,1,91.85,19.22Z"/><path class="cls-3" d="M23.35,18.16v6.54a.82.82,0,0,1-.83.82H16.9a.82.82,0,0,1-.83-.82V18.16a.82.82,0,0,1,.83-.83h5.62A.83.83,0,0,1,23.35,18.16Z"/><path class="cls-3" d="M23.35,36.36v6.53a.83.83,0,0,1-.83.83H16.9a.82.82,0,0,1-.83-.83V36.36a.82.82,0,0,1,.83-.83h5.62A.83.83,0,0,1,23.35,36.36Z"/><path class="cls-3" d="M23.35,53.91v6.53a.83.83,0,0,1-.83.83H16.9a.82.82,0,0,1-.83-.83V53.93a.83.83,0,0,1,.83-.84h5.62A.82.82,0,0,1,23.35,53.91Z"/><path class="cls-3" d="M77.94,19.43v4a.54.54,0,0,1-.55.54H30.65a.54.54,0,0,1-.54-.54v-4a.55.55,0,0,1,.54-.54H77.38A.55.55,0,0,1,77.94,19.43Z"/><path class="cls-3" d="M77.94,37.66v4a.55.55,0,0,1-.55.55H30.65a.54.54,0,0,1-.54-.55v-4a.54.54,0,0,1,.54-.56H77.38A.55.55,0,0,1,77.94,37.66Z"/><path class="cls-4" d="M77.38,19.8H30.65a.55.55,0,0,0-.54.54v3a.54.54,0,0,0,.54.54H77.38a.54.54,0,0,0,.55-.54v-3A.55.55,0,0,0,77.38,19.8ZM22.52,18.23H16.9a.83.83,0,0,0-.83.84v5.62a.82.82,0,0,0,.83.82h5.62a.82.82,0,0,0,.83-.82V19.06A.83.83,0,0,0,22.52,18.23Z"/><path class="cls-5" d="M77.38,18.89H30.65a.55.55,0,0,0-.54.54v3a.54.54,0,0,0,.54.54H77.38a.54.54,0,0,0,.55-.54v-3A.55.55,0,0,0,77.38,18.89Z"/><path class="cls-5" d="M22.52,17.33H16.9a.82.82,0,0,0-.83.83v5.61a.82.82,0,0,0,.83.83h5.62a.83.83,0,0,0,.83-.83V18.16A.83.83,0,0,0,22.52,17.33Z"/><path class="cls-4" d="M77.38,38H30.65a.54.54,0,0,0-.54.55v3a.54.54,0,0,0,.54.55H77.38a.55.55,0,0,0,.55-.55v-3A.55.55,0,0,0,77.38,38ZM22.52,36.45H16.9a.82.82,0,0,0-.83.83v5.61a.82.82,0,0,0,.83.83h5.62a.83.83,0,0,0,.83-.83V37.27A.83.83,0,0,0,22.52,36.45Z"/><path class="cls-5" d="M77.38,37.1H30.65a.54.54,0,0,0-.54.56v3a.54.54,0,0,0,.54.55H77.38a.55.55,0,0,0,.55-.55v-3A.55.55,0,0,0,77.38,37.1Z"/><path class="cls-5" d="M22.52,35.53H16.9a.82.82,0,0,0-.83.83V42a.82.82,0,0,0,.83.83h5.62a.83.83,0,0,0,.83-.83V36.36A.83.83,0,0,0,22.52,35.53Z"/><path class="cls-4" d="M77.38,55.57H30.65a.55.55,0,0,0-.54.55v3a.54.54,0,0,0,.54.56H77.49a.57.57,0,0,0,.43-.43h0a.41.41,0,0,0,0-.11v-3A.55.55,0,0,0,77.38,55.57ZM22.52,54H16.9a.83.83,0,0,0-.83.83v5.61a.82.82,0,0,0,.83.83h5.62a.83.83,0,0,0,.83-.83V54.82A.83.83,0,0,0,22.52,54Z"/><path class="cls-5" d="M77.38,54.67H30.65a.55.55,0,0,0-.54.55v3a.54.54,0,0,0,.54.55H77.38a.55.55,0,0,0,.55-.55v-3A.55.55,0,0,0,77.38,54.67Z"/><path class="cls-5" d="M22.52,53.09H16.9a.83.83,0,0,0-.83.84v5.6a.82.82,0,0,0,.83.82h5.62a.82.82,0,0,0,.83-.82V53.91A.82.82,0,0,0,22.52,53.09Z"/><path class="cls-2" d="M42.94,99.92l-2.26,6.49v1.38H50.81Z"/><path class="cls-6" d="M47.24,105.57h10L55,107.78H48.25Z"/><path class="cls-3" d="M38.05,109.05l3.41-9.75,6.36,6.34Z"/><path class="cls-3" d="M92.68,55.41l-.83-.83L89.56,52.3l-.94-.94L42.41,97.49h0L43.87,99l0,0,4.05,4,.79.79.71.71.18.18L89.56,64.82l1.13-1.13,1.16-1.16,4-4ZM101.12,47l-.53-1.06,0-.06,0,0L98,44.93l-2.25-.82-2.37,2.36-.17.18L91.85,48l-1.8,1.8.08.09.56.56.89.9.28.28.94,1,1.36,1.38,3,3.1,0,0,2-2,1.95-1.95,2-2Z"/><path class="cls-2" d="M89.56,73.26V53.36L42.94,99.92l7.87,7.86H55Z"/><path class="cls-1" d="M43.63,99.19,98.79,44.11l3.74,3.73a3.14,3.14,0,0,1,0,4.45L49.59,105.16Z"/><path class="cls-4" d="M46.22,101.79l55.38-55.3,1.61,1.61a2.69,2.69,0,0,1,0,3.8L49.74,105.31Z"/><path class="cls-5" d="M94,54l-2.19-2.2-.4-.39-.76-.77L88.61,48.6,77.93,59.27h0l-.43.43h0L39.65,97.49l1.81,1.81,1.25,1.26.23.22,4.79,4.8.08.07,1.8,1.81L50,107l1.45-1.44L97.36,59.77l1.21-1.21ZM42.41,97.49l46.2-46.14.94.94,2.29,2.29.83.83,3.15,3.14-4,4-1.16,1.16-1.13,1.13L49.61,104.7l-.18-.18-.71-.71-.79-.79-.61-.61-.86-.86h0c-.9-.9-1.83-1.84-2.58-2.57h0L42.41,97.5Z"/><path class="cls-5" d="M103.77,48.9a7.05,7.05,0,0,0-11.71-3.71l-.07.07-.11.1,1.38,1.38a1.41,1.41,0,0,0,.18-.17l0,0a5.13,5.13,0,0,1,7,.2,5.86,5.86,0,0,1,.4.45,5.1,5.1,0,0,1,.27,5.88,4.56,4.56,0,0,1-.54.7l-.17.18,1.38,1.38.17-.18a7.07,7.07,0,0,0,1.75-6.23Zm-56,56.67-4.81-4.8,4.79,4.8.08.07ZM41.46,99.3l1.25,1.26.23.22-.22-.23Zm6.35,6.34-.46.17-5.63,2-.06,0-3.1,1.08-.48.17h0l.06-.18.38-1.1h0l.76-2.19h0l2.19-6.27-1.81-1.81-2.81,8.08-.77,2.19-.38,1.1-.37,1.08-.15.41a1.16,1.16,0,0,0,0,.82,1.22,1.22,0,0,0,1.57.76l5.7-2,3.11-1.08,3.1-1.08.06,0,.91-.31Z"/><path class="cls-5" d="M92.8,52.55l1.36,1.38h0Zm-.74-7.37-.07.07-.1.11,0,0-1.16,1.16-1.13,1.14-.94.92-1.21,1.22L89.56,52l.68.68,2.6,2.59,3.37,3.37.15.15,1,1v0l4.48-4.48.17-.18Zm1.51,4.15,2.6,2.59L99.23,55l.08.08-2,2L97.23,57,92.8,52.55l-.94-.94-.29-.28-.88-.87-.58-.58,2-2Z"/><path class="cls-1" d="M47.82,105.64l-9.77,3.42,4.88-8.28Z"/><rect class="cls-7" x="2" y="2" width="89.85" height="108" rx="12" ry="12"/></svg>
