<svg id="图层_1" data-name="图层 1" xmlns="http://www.w3.org/2000/svg" viewBox="0 0 112 112"><defs><style>.cls-1{fill:#d0d9fb;}.cls-2{fill:#7b96f7;}.cls-3{fill:#606060;}.cls-4{fill:none;stroke:#456eff;stroke-linecap:round;stroke-linejoin:round;stroke-width:2.99px;}.cls-5{fill:#fff;}.cls-6{fill:#3f63f6;}.cls-7{fill:#98b1ed;}.cls-8{fill:#a5bbf9;}</style></defs><title></title><ellipse class="cls-1" cx="56.11" cy="58.01" rx="14.25" ry="14.28"/><path class="cls-2" d="M70.14,59.57a14.55,14.55,0,0,1-28.07,0,15.22,15.22,0,0,0,28.07,0Z"/><path class="cls-1" d="M88.28,66.44a33.79,33.79,0,0,1-64.35,0,36.09,36.09,0,0,0,64.35,0Z"/><path class="cls-3" d="M88.28,66.44A33.23,33.23,0,0,0,89.93,56a33.83,33.83,0,1,0-67.65,0,33.23,33.23,0,0,0,1.65,10.44,36.14,36.14,0,1,1,64.35,0Z"/><path class="cls-1" d="M56.1,6.45A51,51,0,0,0,20,93.45a.8.8,0,0,0,.12.14A50.79,50.79,0,0,0,48.34,108c1.22.17,2.46.33,3.72.41s2.68.18,4,.18,2.7-.06,4-.18,2.5-.23,3.72-.41A50.78,50.78,0,0,0,93.79,91.82a.84.84,0,0,1,.12-.14,51.08,51.08,0,0,0,9.47-15.17.07.07,0,0,1,0-.06,51.09,51.09,0,0,0-47.29-70Zm0,16.92A32.67,32.67,0,1,1,23.52,56,32.62,32.62,0,0,1,56.1,23.37Z"/><path class="cls-2" d="M56,106.47c-29.94,0-54.29-23.06-55-51.77,0,.42,0,.84,0,1.26,0,29.29,24.62,53,55,53s55-23.74,55-53c0-.42,0-.84,0-1.26C110.29,83.41,85.94,106.47,56,106.47Z"/><path class="cls-4" d="M56.1,1.5A54.44,54.44,0,0,0,1.74,56,53.25,53.25,0,0,0,3,67.69a54.31,54.31,0,0,0,7.91,18.65.37.37,0,0,1,.1.14,54.33,54.33,0,0,0,37,23.41c1.27.18,2.56.34,3.87.42s2.78.18,4.19.18,2.8-.06,4.19-.18,2.6-.24,3.87-.42a54.58,54.58,0,0,0,45.69-45.6v0a55.79,55.79,0,0,0,.62-8.26A54.44,54.44,0,0,0,56.1,1.5Z"/><ellipse class="cls-4" cx="56.1" cy="56" rx="33.83" ry="33.91"/><ellipse class="cls-4" cx="56.11" cy="56" rx="15.74" ry="15.78"/><path class="cls-5" d="M66.6,44.86l-.1.1-.63.63a12.06,12.06,0,0,0-2.28-1.82l.82-.82A12,12,0,0,1,66.6,44.86Z"/><path class="cls-5" d="M70.16,54v.12a.61.61,0,0,0,0,.18v.24a4.05,4.05,0,0,0,0-.46,1.37,1.37,0,0,0,0-.28v0a.49.49,0,0,0,0-.18V54A.06.06,0,0,0,70.16,54Z"/><path class="cls-2" d="M70.08,54.24a1,1,0,0,1,0,.24v.1H56.2l-1.13-2.22h4l10.67,0c0,.14.06.28.08.4l.06.24s0,.1,0,.14v0s0,.1,0,.14a.55.55,0,0,1,0,.18c0,.1,0,.2,0,.26v.1A2.18,2.18,0,0,1,70.08,54.24Z"/><polygon class="cls-6" points="98.45 12.94 98.41 12.98 98.05 13.34 97.72 13.67 97.72 13.7 97.69 13.7 97.36 14.05 97.34 14.05 97.34 14.07 97.32 14.07 93.1 18.31 86.11 25.31 86.07 25.35 85.72 25.71 85.4 26.02 85.15 26.27 84.82 26.61 84.46 26.96 78.86 32.58 68.07 43.4 67.27 44.19 66.6 44.87 66.5 44.97 65.87 45.6 56.9 54.59 56.3 55.2 54.25 53.15 63.59 43.77 64.41 42.96 65.12 42.24 65.91 41.45 77.56 29.77 78.31 29.02 82.35 24.97 82.68 24.64 82.75 24.59 83.06 24.28 83.06 24.26 83.54 23.78 83.56 23.76 95.35 11.93 95.69 11.6 96.04 11.24 96.4 10.89 98.45 12.94"/><path class="cls-1" d="M95.93,12.4l-.24-.81L94.28,7l-.06-.14a.33.33,0,0,0-.08-.14.53.53,0,0,0-.12-.1h0a.17.17,0,0,0-.12-.06.85.85,0,0,0-.22,0,.71.71,0,0,0-.46.18L88.72,11l-1.57,1.53-.66.63-5,4.84a.69.69,0,0,0-.16.67L83,24.13a.15.15,0,0,0,0,.08s0,0,0,.06v0a.43.43,0,0,0,.08.12s.06.06.1.06a.4.4,0,0,0,.16.08,1,1,0,0,0,.22,0,.71.71,0,0,0,.46-.18L91.68,17l.36-.34,1.55-1.51,2.17-2.1A.66.66,0,0,0,95.93,12.4ZM93.27,7.25a.2.2,0,0,1,.26.16l0,.08s0,.06,0,.08l-4,4.06L88,13.21l-.58.59-5,5.13h0s0,0-.06,0a1,1,0,0,1,.3-.79l4.43-4.56.58-.61,1.53-1.57,3.95-4.08A.17.17,0,0,1,93.27,7.25Z"/><path class="cls-6" d="M96.35,12.3l-.3-1L94.72,6.83a1.11,1.11,0,0,0-1.67-.63L88.4,10.72l-1.59,1.51-.68.69-5.05,4.93a1.09,1.09,0,0,0-.14.93l.08.28,1.55,5.21s0,.08.06.1a.48.48,0,0,0,.12.22,1.08,1.08,0,0,0,1.17.42.88.88,0,0,0,.46-.3L86,23.14l.46-.42L92,17.33l.36-.36,1.55-1.51,2.29-2.24a2.08,2.08,0,0,0,.16-.38A.93.93,0,0,0,96.35,12.3ZM84.09,24.41a.71.71,0,0,1-.46.18,1,1,0,0,1-.22,0,.69.69,0,0,1-.34-.26v0s0,0,0-.06,0-.06-.06-.08l-1.63-5.47a.69.69,0,0,1,.16-.67l5-4.84.66-.63L88.72,11l4.47-4.34a.71.71,0,0,1,.46-.18.85.85,0,0,1,.22,0,.17.17,0,0,1,.12.06h0a.53.53,0,0,1,.12.1.33.33,0,0,1,.08.14l.06.14,1.41,4.64.24.81a.66.66,0,0,1-.16.67l-2.17,2.1L92,16.68l-.36.34Z"/><path class="cls-6" d="M96.43,12.56l-.08-.26-.3-1L94.72,6.83,94.5,6a.59.59,0,0,0-.28-.34.14.14,0,0,0-.12-.06.58.58,0,0,0-.18,0,.54.54,0,0,0-.44.2l-.42.4L88.4,10.72l-1.59,1.51-.68.69-5.05,4.93-.06,0a.65.65,0,0,0-.16.63l.08.26.08.28,1.61,5.31.06.26.12.38a.7.7,0,0,0,.08.18.63.63,0,0,0,.5.26.58.58,0,0,0,.42-.18l.56-.57L86,23.14l.46-.42L92,17.33l.36-.36,1.55-1.51,2.29-2.24.06,0a.58.58,0,0,0,.18-.4A.7.7,0,0,0,96.43,12.56ZM82.36,17.81l4.53-4.38.62-.65,1.57-1.51,4.07-4,0,0a1.09,1.09,0,0,1,.22-.1.26.26,0,0,1,.12,0,.57.57,0,0,1,.3.08l.1.1.06.16,1.35,4.46.12.38a.59.59,0,0,1-.18.61l-2,1.94-1.55,1.51-.4.38-7.11,6.88a.3.3,0,0,1-.18.14l-.08,0a.61.61,0,0,1-.42,0s0,0-.06,0-.06,0-.08-.06l-.1-.1a.74.74,0,0,1-.08-.18L82,19.24a.25.25,0,0,1,0-.12,1.43,1.43,0,0,1,0-.59A1.54,1.54,0,0,1,82.36,17.81Z"/><path class="cls-6" d="M95.35,11.94,94,7.47l-.06-.16-.1-.1a.57.57,0,0,0-.3-.08.26.26,0,0,0-.12,0,1.09,1.09,0,0,0-.22.1l0,0a.17.17,0,0,1,.12,0,.2.2,0,0,1,.26.16l0,.08s0,.06,0,.08h0a0,0,0,0,1,0,0L95,12.28v0l0,.14a.14.14,0,0,1-.06.16l-2,2-1.55,1.49-.42.42-4.73,4.58-.44.42-.5.5-1.39,1.35a.17.17,0,0,1-.12.06.18.18,0,0,1-.16-.12l-1.23-4.16a.89.89,0,0,1-.06-.22,1,1,0,0,1,.3-.79l4.43-4.56.58-.61,1.53-1.57,3.95-4.08-4.07,4-1.57,1.51-.62.65-4.53,4.38a1.54,1.54,0,0,0-.4.73,1.43,1.43,0,0,0,0,.59s0,.08,0,.12l1.25,4.16a.74.74,0,0,0,.08.18l.1.1s0,0,.08.06a.15.15,0,0,0,.08,0,.36.36,0,0,0,.24.06,1,1,0,0,0,.24,0,.3.3,0,0,0,.18-.14l7.11-6.88.4-.38,1.55-1.51,2-1.94a.59.59,0,0,0,.18-.61Zm0,0L94,7.47l-.06-.16-.1-.1a.57.57,0,0,0-.3-.08.26.26,0,0,0-.12,0,1.09,1.09,0,0,0-.22.1l0,0a.17.17,0,0,1,.12,0,.2.2,0,0,1,.26.16l0,.08s0,.06,0,.08h0a0,0,0,0,1,0,0L95,12.28v0l0,.14a.14.14,0,0,1-.06.16l-2,2-1.55,1.49-.42.42-4.73,4.58-.44.42-.5.5-1.39,1.35a.17.17,0,0,1-.12.06.18.18,0,0,1-.16-.12l-1.23-4.16a.89.89,0,0,1-.06-.22,1,1,0,0,1,.3-.79l4.43-4.56.58-.61,1.53-1.57,3.95-4.08-4.07,4-1.57,1.51-.62.65-4.53,4.38a1.54,1.54,0,0,0-.4.73,1.43,1.43,0,0,0,0,.59s0,.08,0,.12l1.25,4.16a.74.74,0,0,0,.08.18l.1.1s0,0,.08.06a.15.15,0,0,0,.08,0,.36.36,0,0,0,.24.06,1,1,0,0,0,.24,0,.3.3,0,0,0,.18-.14l7.11-6.88.4-.38,1.55-1.51,2-1.94a.59.59,0,0,0,.18-.61Zm0,0L94,7.47l-.06-.16-.1-.1a.57.57,0,0,0-.3-.08.26.26,0,0,0-.12,0,1.09,1.09,0,0,0-.22.1l0,0a.17.17,0,0,1,.12,0,.2.2,0,0,1,.26.16l0,.08s0,.06,0,.08h0a0,0,0,0,1,0,0L95,12.28v0l0,.14a.14.14,0,0,1-.06.16l-2,2-1.55,1.49-.42.42-4.73,4.58-.44.42-.5.5-1.39,1.35a.17.17,0,0,1-.12.06.18.18,0,0,1-.16-.12l-1.23-4.16a.89.89,0,0,1-.06-.22,1,1,0,0,1,.3-.79l4.43-4.56.58-.61,1.53-1.57,3.95-4.08-4.07,4-1.57,1.51-.62.65-4.53,4.38a1.54,1.54,0,0,0-.4.73,1.43,1.43,0,0,0,0,.59s0,.08,0,.12l1.25,4.16a.74.74,0,0,0,.08.18l.1.1s0,0,.08.06a.15.15,0,0,0,.08,0,.36.36,0,0,0,.24.06,1,1,0,0,0,.24,0,.3.3,0,0,0,.18-.14l7.11-6.88.4-.38,1.55-1.51,2-1.94a.59.59,0,0,0,.18-.61Zm0,0L94,7.47l-.06-.16-.1-.1a.57.57,0,0,0-.3-.08.26.26,0,0,0-.12,0,1.09,1.09,0,0,0-.22.1l0,0a.17.17,0,0,1,.12,0,.2.2,0,0,1,.26.16l0,.08s0,.06,0,.08h0a0,0,0,0,1,0,0L95,12.28v0l0,.14a.14.14,0,0,1-.06.16l-2,2-1.55,1.49-.42.42-4.73,4.58-.44.42-.5.5-1.39,1.35a.17.17,0,0,1-.12.06.18.18,0,0,1-.16-.12l-1.23-4.16a.89.89,0,0,1-.06-.22,1,1,0,0,1,.3-.79l4.43-4.56.58-.61,1.53-1.57,3.95-4.08-4.07,4-1.57,1.51-.62.65-4.53,4.38a1.54,1.54,0,0,0-.4.73,1.43,1.43,0,0,0,0,.59s0,.08,0,.12l1.25,4.16a.74.74,0,0,0,.08.18l.1.1s0,0,.08.06a.15.15,0,0,0,.08,0,.36.36,0,0,0,.24.06,1,1,0,0,0,.24,0,.3.3,0,0,0,.18-.14l7.11-6.88.4-.38,1.55-1.51,2-1.94a.59.59,0,0,0,.18-.61Zm0,0L94,7.47l-.06-.16-.1-.1a.57.57,0,0,0-.3-.08.26.26,0,0,0-.12,0,1.09,1.09,0,0,0-.22.1l0,0a.17.17,0,0,1,.12,0,.2.2,0,0,1,.26.16l0,.08s0,.06,0,.08h0a0,0,0,0,1,0,0L95,12.28v0l0,.14a.14.14,0,0,1-.06.16l-2,2-1.55,1.49-.42.42-4.73,4.58-.44.42-.5.5-1.39,1.35a.17.17,0,0,1-.12.06.18.18,0,0,1-.16-.12l-1.23-4.16a.89.89,0,0,1-.06-.22,1,1,0,0,1,.3-.79l4.43-4.56.58-.61,1.53-1.57,3.95-4.08-4.07,4-1.57,1.51-.62.65-4.53,4.38a1.54,1.54,0,0,0-.4.73,1.43,1.43,0,0,0,0,.59s0,.08,0,.12l1.25,4.16a.74.74,0,0,0,.08.18l.1.1s0,0,.08.06a.15.15,0,0,0,.08,0,.36.36,0,0,0,.24.06,1,1,0,0,0,.24,0,.3.3,0,0,0,.18-.14l7.11-6.88.4-.38,1.55-1.51,2-1.94a.59.59,0,0,0,.18-.61Zm0,0L94,7.47l-.06-.16-.1-.1a.57.57,0,0,0-.3-.08.26.26,0,0,0-.12,0,1.09,1.09,0,0,0-.22.1l0,0a.17.17,0,0,1,.12,0,.2.2,0,0,1,.26.16l0,.08s0,.06,0,.08h0a0,0,0,0,1,0,0L95,12.28v0l0,.14a.14.14,0,0,1-.06.16l-2,2-1.55,1.49-.42.42-4.73,4.58-.44.42-.5.5-1.39,1.35a.17.17,0,0,1-.12.06.18.18,0,0,1-.16-.12l-1.23-4.16a.89.89,0,0,1-.06-.22,1,1,0,0,1,.3-.79l4.43-4.56.58-.61,1.53-1.57,3.95-4.08-4.07,4-1.57,1.51-.62.65-4.53,4.38a1.54,1.54,0,0,0-.4.73,1.43,1.43,0,0,0,0,.59s0,.08,0,.12l1.25,4.16a.74.74,0,0,0,.08.18l.1.1s0,0,.08.06a.15.15,0,0,0,.08,0,.36.36,0,0,0,.24.06,1,1,0,0,0,.24,0,.3.3,0,0,0,.18-.14l7.11-6.88.4-.38,1.55-1.51,2-1.94a.59.59,0,0,0,.18-.61Zm0,0L94,7.47l-.06-.16-.1-.1a.57.57,0,0,0-.3-.08.26.26,0,0,0-.12,0,1.09,1.09,0,0,0-.22.1l0,0a.17.17,0,0,1,.12,0,.2.2,0,0,1,.26.16l0,.08s0,.06,0,.08h0a0,0,0,0,1,0,0L95,12.28v0l0,.14a.14.14,0,0,1-.06.16l-2,2-1.55,1.49-.42.42-4.73,4.58-.44.42-.5.5-1.39,1.35a.17.17,0,0,1-.12.06.18.18,0,0,1-.16-.12l-1.23-4.16a.89.89,0,0,1-.06-.22,1,1,0,0,1,.3-.79l4.43-4.56.58-.61,1.53-1.57,3.95-4.08-4.07,4-1.57,1.51-.62.65-4.53,4.38a1.54,1.54,0,0,0-.4.73,1.43,1.43,0,0,0,0,.59s0,.08,0,.12l1.25,4.16a.74.74,0,0,0,.08.18l.1.1s0,0,.08.06a.15.15,0,0,0,.08,0,.36.36,0,0,0,.24.06,1,1,0,0,0,.24,0,.3.3,0,0,0,.18-.14l7.11-6.88.4-.38,1.55-1.51,2-1.94a.59.59,0,0,0,.18-.61Zm0,0L94,7.47l-.06-.16-.1-.1a.57.57,0,0,0-.3-.08.26.26,0,0,0-.12,0,1.09,1.09,0,0,0-.22.1l0,0a.17.17,0,0,1,.12,0,.2.2,0,0,1,.26.16l0,.08s0,.06,0,.08h0a0,0,0,0,1,0,0L95,12.28v0l0,.14a.14.14,0,0,1-.06.16l-2,2-1.55,1.49-.42.42-4.73,4.58-.44.42-.5.5-1.39,1.35a.17.17,0,0,1-.12.06.18.18,0,0,1-.16-.12l-1.23-4.16a.89.89,0,0,1-.06-.22,1,1,0,0,1,.3-.79l4.43-4.56.58-.61,1.53-1.57,3.95-4.08-4.07,4-1.57,1.51-.62.65-4.53,4.38a1.54,1.54,0,0,0-.4.73,1.43,1.43,0,0,0,0,.59s0,.08,0,.12l1.25,4.16a.74.74,0,0,0,.08.18l.1.1s0,0,.08.06a.15.15,0,0,0,.08,0,.36.36,0,0,0,.24.06,1,1,0,0,0,.24,0,.3.3,0,0,0,.18-.14l7.11-6.88.4-.38,1.55-1.51,2-1.94a.59.59,0,0,0,.18-.61Zm0,0L94,7.47l-.06-.16-.1-.1a.57.57,0,0,0-.3-.08.26.26,0,0,0-.12,0,1.09,1.09,0,0,0-.22.1l0,0a.17.17,0,0,1,.12,0,.2.2,0,0,1,.26.16l0,.08s0,.06,0,.08h0a0,0,0,0,1,0,0L95,12.28v0l0,.14a.14.14,0,0,1-.06.16l-2,2-1.55,1.49-.42.42-4.73,4.58-.44.42-.5.5-1.39,1.35a.17.17,0,0,1-.12.06.18.18,0,0,1-.16-.12l-1.23-4.16a.89.89,0,0,1-.06-.22,1,1,0,0,1,.3-.79l4.43-4.56.58-.61,1.53-1.57,3.95-4.08-4.07,4-1.57,1.51-.62.65-4.53,4.38a1.54,1.54,0,0,0-.4.73,1.43,1.43,0,0,0,0,.59s0,.08,0,.12l1.25,4.16a.74.74,0,0,0,.08.18l.1.1s0,0,.08.06a.15.15,0,0,0,.08,0,.36.36,0,0,0,.24.06,1,1,0,0,0,.24,0,.3.3,0,0,0,.18-.14l7.11-6.88.4-.38,1.55-1.51,2-1.94a.59.59,0,0,0,.18-.61Zm0,0L94,7.47l-.06-.16-.1-.1a.57.57,0,0,0-.3-.08.26.26,0,0,0-.12,0,1.09,1.09,0,0,0-.22.1l0,0a.17.17,0,0,1,.12,0,.2.2,0,0,1,.26.16l0,.08s0,.06,0,.08h0a0,0,0,0,1,0,0L95,12.28v0l0,.14a.14.14,0,0,1-.06.16l-2,2-1.55,1.49-.42.42-4.73,4.58-.44.42-.5.5-1.39,1.35a.17.17,0,0,1-.12.06.18.18,0,0,1-.16-.12l-1.23-4.16a.89.89,0,0,1-.06-.22,1,1,0,0,1,.3-.79l4.43-4.56.58-.61,1.53-1.57,3.95-4.08-4.07,4-1.57,1.51-.62.65-4.53,4.38a1.54,1.54,0,0,0-.4.73,1.43,1.43,0,0,0,0,.59s0,.08,0,.12l1.25,4.16a.74.74,0,0,0,.08.18l.1.1s0,0,.08.06a.15.15,0,0,0,.08,0,.36.36,0,0,0,.24.06,1,1,0,0,0,.24,0,.3.3,0,0,0,.18-.14l7.11-6.88.4-.38,1.55-1.51,2-1.94a.59.59,0,0,0,.18-.61Zm0,0L94,7.47l-.06-.16-.1-.1a.57.57,0,0,0-.3-.08.26.26,0,0,0-.12,0,1.09,1.09,0,0,0-.22.1l0,0a.17.17,0,0,1,.12,0,.2.2,0,0,1,.26.16l0,.08s0,.06,0,.08h0a0,0,0,0,1,0,0L95,12.28v0l0,.14a.14.14,0,0,1-.06.16l-2,2-1.55,1.49-.42.42-4.73,4.58-.44.42-.5.5-1.39,1.35a.17.17,0,0,1-.12.06.18.18,0,0,1-.16-.12l-1.23-4.16a.89.89,0,0,1-.06-.22,1,1,0,0,1,.3-.79l4.43-4.56.58-.61,1.53-1.57,3.95-4.08-4.07,4-1.57,1.51-.62.65-4.53,4.38a1.54,1.54,0,0,0-.4.73,1.43,1.43,0,0,0,0,.59s0,.08,0,.12l1.25,4.16a.74.74,0,0,0,.08.18l.1.1s0,0,.08.06a.15.15,0,0,0,.08,0,.36.36,0,0,0,.24.06,1,1,0,0,0,.24,0,.3.3,0,0,0,.18-.14l7.11-6.88.4-.38,1.55-1.51,2-1.94a.59.59,0,0,0,.18-.61Zm0,0L94,7.47l-.06-.16-.1-.1a.57.57,0,0,0-.3-.08.26.26,0,0,0-.12,0,1.09,1.09,0,0,0-.22.1l0,0a.17.17,0,0,1,.12,0,.2.2,0,0,1,.26.16l0,.08s0,.06,0,.08h0a0,0,0,0,1,0,0L95,12.28v0l0,.14a.14.14,0,0,1-.06.16l-2,2-1.55,1.49-.42.42-4.73,4.58-.44.42-.5.5-1.39,1.35a.17.17,0,0,1-.12.06.18.18,0,0,1-.16-.12l-1.23-4.16a.89.89,0,0,1-.06-.22,1,1,0,0,1,.3-.79l4.43-4.56.58-.61,1.53-1.57,3.95-4.08-4.07,4-1.57,1.51-.62.65-4.53,4.38a1.54,1.54,0,0,0-.4.73,1.43,1.43,0,0,0,0,.59s0,.08,0,.12l1.25,4.16a.74.74,0,0,0,.08.18l.1.1s0,0,.08.06a.15.15,0,0,0,.08,0,.36.36,0,0,0,.24.06,1,1,0,0,0,.24,0,.3.3,0,0,0,.18-.14l7.11-6.88.4-.38,1.55-1.51,2-1.94a.59.59,0,0,0,.18-.61Zm0,0L94,7.47l-.06-.16-.1-.1a.57.57,0,0,0-.3-.08.26.26,0,0,0-.12,0,1.09,1.09,0,0,0-.22.1l0,0a.17.17,0,0,1,.12,0,.2.2,0,0,1,.26.16l0,.08s0,.06,0,.08h0a0,0,0,0,1,0,0L95,12.28v0l0,.14a.14.14,0,0,1-.06.16l-2,2-1.55,1.49-.42.42-4.73,4.58-.44.42-.5.5-1.39,1.35a.17.17,0,0,1-.12.06.18.18,0,0,1-.16-.12l-1.23-4.16a.89.89,0,0,1-.06-.22,1,1,0,0,1,.3-.79l4.43-4.56.58-.61,1.53-1.57,3.95-4.08-4.07,4-1.57,1.51-.62.65-4.53,4.38a1.54,1.54,0,0,0-.4.73,1.43,1.43,0,0,0,0,.59s0,.08,0,.12l1.25,4.16a.74.74,0,0,0,.08.18l.1.1s0,0,.08.06a.15.15,0,0,0,.08,0,.36.36,0,0,0,.24.06,1,1,0,0,0,.24,0,.3.3,0,0,0,.18-.14l7.11-6.88.4-.38,1.55-1.51,2-1.94a.59.59,0,0,0,.18-.61Zm0,0L94,7.47l-.06-.16-.1-.1a.57.57,0,0,0-.3-.08.26.26,0,0,0-.12,0,1.09,1.09,0,0,0-.22.1l0,0a.17.17,0,0,1,.12,0,.2.2,0,0,1,.26.16l0,.08s0,.06,0,.08h0a0,0,0,0,1,0,0L95,12.28v0l0,.14a.14.14,0,0,1-.06.16l-2,2-1.55,1.49-.42.42-4.73,4.58-.44.42-.5.5-1.39,1.35a.17.17,0,0,1-.12.06.18.18,0,0,1-.16-.12l-1.23-4.16a.89.89,0,0,1-.06-.22,1,1,0,0,1,.3-.79l4.43-4.56.58-.61,1.53-1.57,3.95-4.08-4.07,4-1.57,1.51-.62.65-4.53,4.38a1.54,1.54,0,0,0-.4.73,1.43,1.43,0,0,0,0,.59s0,.08,0,.12l1.25,4.16a.74.74,0,0,0,.08.18l.1.1s0,0,.08.06a.15.15,0,0,0,.08,0,.36.36,0,0,0,.24.06,1,1,0,0,0,.24,0,.3.3,0,0,0,.18-.14l7.11-6.88.4-.38,1.55-1.51,2-1.94a.59.59,0,0,0,.18-.61Zm0,0L94,7.47l-.06-.16-.1-.1a.57.57,0,0,0-.3-.08.26.26,0,0,0-.12,0,1.09,1.09,0,0,0-.22.1l0,0a.17.17,0,0,1,.12,0,.2.2,0,0,1,.26.16l0,.08s0,.06,0,.08h0a0,0,0,0,1,0,0L95,12.28v0l0,.14a.14.14,0,0,1-.06.16l-2,2-1.55,1.49-.42.42-4.73,4.58-.44.42-.5.5-1.39,1.35a.17.17,0,0,1-.12.06.18.18,0,0,1-.16-.12l-1.23-4.16a.89.89,0,0,1-.06-.22,1,1,0,0,1,.3-.79l4.43-4.56.58-.61,1.53-1.57,3.95-4.08-4.07,4-1.57,1.51-.62.65-4.53,4.38a1.54,1.54,0,0,0-.4.73,1.43,1.43,0,0,0,0,.59s0,.08,0,.12l1.25,4.16a.74.74,0,0,0,.08.18l.1.1s0,0,.08.06a.15.15,0,0,0,.08,0,.36.36,0,0,0,.24.06,1,1,0,0,0,.24,0,.3.3,0,0,0,.18-.14l7.11-6.88.4-.38,1.55-1.51,2-1.94a.59.59,0,0,0,.18-.61Zm0,0L94,7.47l-.06-.16-.1-.1a.57.57,0,0,0-.3-.08.26.26,0,0,0-.12,0,1.09,1.09,0,0,0-.22.1l0,0a.17.17,0,0,1,.12,0,.2.2,0,0,1,.26.16l0,.08s0,.06,0,.08h0a0,0,0,0,1,0,0L95,12.28v0l0,.14a.14.14,0,0,1-.06.16l-2,2-1.55,1.49-.42.42-4.73,4.58-.44.42-.5.5-1.39,1.35a.17.17,0,0,1-.12.06.18.18,0,0,1-.16-.12l-1.23-4.16a.89.89,0,0,1-.06-.22,1,1,0,0,1,.3-.79l4.43-4.56.58-.61,1.53-1.57,3.95-4.08-4.07,4-1.57,1.51-.62.65-4.53,4.38a1.54,1.54,0,0,0-.4.73,1.43,1.43,0,0,0,0,.59s0,.08,0,.12l1.25,4.16a.74.74,0,0,0,.08.18l.1.1s0,0,.08.06a.15.15,0,0,0,.08,0,.36.36,0,0,0,.24.06,1,1,0,0,0,.24,0,.3.3,0,0,0,.18-.14l7.11-6.88.4-.38,1.55-1.51,2-1.94a.59.59,0,0,0,.18-.61Zm0,0L94,7.47l-.06-.16-.1-.1a.57.57,0,0,0-.3-.08.26.26,0,0,0-.12,0,1.09,1.09,0,0,0-.22.1l0,0a.17.17,0,0,1,.12,0,.2.2,0,0,1,.26.16l0,.08s0,.06,0,.08h0a0,0,0,0,1,0,0L95,12.28v0l0,.14a.14.14,0,0,1-.06.16l-2,2-1.55,1.49-.42.42-4.73,4.58-.44.42-.5.5-1.39,1.35a.17.17,0,0,1-.12.06.18.18,0,0,1-.16-.12l-1.23-4.16a.89.89,0,0,1-.06-.22,1,1,0,0,1,.3-.79l4.43-4.56.58-.61,1.53-1.57,3.95-4.08-4.07,4-1.57,1.51-.62.65-4.53,4.38a1.54,1.54,0,0,0-.4.73,1.43,1.43,0,0,0,0,.59s0,.08,0,.12l1.25,4.16a.74.74,0,0,0,.08.18l.1.1s0,0,.08.06a.15.15,0,0,0,.08,0,.36.36,0,0,0,.24.06,1,1,0,0,0,.24,0,.3.3,0,0,0,.18-.14l7.11-6.88.4-.38,1.55-1.51,2-1.94a.59.59,0,0,0,.18-.61Zm0,0L94,7.47l-.06-.16-.1-.1a.57.57,0,0,0-.3-.08.26.26,0,0,0-.12,0,1.09,1.09,0,0,0-.22.1l0,0a.17.17,0,0,1,.12,0,.2.2,0,0,1,.26.16l0,.08s0,.06,0,.08h0a0,0,0,0,1,0,0L95,12.28v0l0,.14a.14.14,0,0,1-.06.16l-2,2-1.55,1.49-.42.42-4.73,4.58-.44.42-.5.5-1.39,1.35a.17.17,0,0,1-.12.06.18.18,0,0,1-.16-.12l-1.23-4.16a.89.89,0,0,1-.06-.22,1,1,0,0,1,.3-.79l4.43-4.56.58-.61,1.53-1.57,3.95-4.08-4.07,4-1.57,1.51-.62.65-4.53,4.38a1.54,1.54,0,0,0-.4.73,1.43,1.43,0,0,0,0,.59s0,.08,0,.12l1.25,4.16a.74.74,0,0,0,.08.18l.1.1s0,0,.08.06a.15.15,0,0,0,.08,0,.36.36,0,0,0,.24.06,1,1,0,0,0,.24,0,.3.3,0,0,0,.18-.14l7.11-6.88.4-.38,1.55-1.51,2-1.94a.59.59,0,0,0,.18-.61Zm1.51.5-.46-1.55-1.47-5a1.1,1.1,0,0,0-1-.77,1.12,1.12,0,0,0-.75.3l-5.13,5L86.45,12l-.68.67-5.08,4.9a1.16,1.16,0,0,0-.26,1.07L82.34,25l.06.16a1,1,0,0,0,1.27.71h0a.81.81,0,0,0,.42-.24L86.75,23l5.6-5.45.32-.3,1.57-1.51,2.36-2.28a.21.21,0,0,0,.08-.16.46.46,0,0,0,.16-.28.82.82,0,0,0,0-.44A.46.46,0,0,0,96.86,12.44ZM86.47,22.71l-.46.42-1.63,1.57-.56.57a.58.58,0,0,1-.42.18.63.63,0,0,1-.5-.26A.7.7,0,0,1,82.8,25l-.12-.38-.06-.26L81,19.06l-.08-.28-.08-.26a.65.65,0,0,1,.16-.63l.06,0,5.05-4.93.68-.69,1.59-1.51L93.05,6.2l.42-.4a.54.54,0,0,1,.44-.2.58.58,0,0,1,.18,0,.14.14,0,0,1,.12.06A.59.59,0,0,1,94.5,6l.22.79,1.33,4.42.3,1,.08.26a.7.7,0,0,1,0,.2.58.58,0,0,1-.18.4l-.06,0-2.29,2.24L92.37,17l-.36.36Zm8.82-9.79a.59.59,0,0,0,.18-.61l-.12-.38L94,7.47l-.06-.16-.1-.1a.57.57,0,0,0-.3-.08.26.26,0,0,0-.12,0,1.09,1.09,0,0,0-.22.1l0,0a.17.17,0,0,1,.12,0,.2.2,0,0,1,.26.16l0,.08s0,.06,0,.08h0a0,0,0,0,1,0,0L95,12.28v0l0,.14a.14.14,0,0,1-.06.16l-2,2-1.55,1.49-.42.42-4.73,4.58-.44.42-.5.5-1.39,1.35a.17.17,0,0,1-.12.06.18.18,0,0,1-.16-.12l-1.23-4.16a.89.89,0,0,1-.06-.22,1,1,0,0,1,.3-.79l4.43-4.56.58-.61,1.53-1.57,3.95-4.08-4.07,4-1.57,1.51-.62.65-4.53,4.38a1.54,1.54,0,0,0-.4.73,1.43,1.43,0,0,0,0,.59s0,.08,0,.12l1.25,4.16a.74.74,0,0,0,.08.18l.1.1s0,0,.08.06a.15.15,0,0,0,.08,0,.36.36,0,0,0,.24.06,1,1,0,0,0,.24,0,.3.3,0,0,0,.18-.14l7.11-6.88.4-.38,1.55-1.51Zm.06-1L94,7.47l-.06-.16-.1-.1a.57.57,0,0,0-.3-.08.26.26,0,0,0-.12,0,1.09,1.09,0,0,0-.22.1l0,0a.17.17,0,0,1,.12,0,.2.2,0,0,1,.26.16l0,.08s0,.06,0,.08h0a0,0,0,0,1,0,0L95,12.28v0l0,.14a.14.14,0,0,1-.06.16l-2,2-1.55,1.49-.42.42-4.73,4.58-.44.42-.5.5-1.39,1.35a.17.17,0,0,1-.12.06.18.18,0,0,1-.16-.12l-1.23-4.16a.89.89,0,0,1-.06-.22,1,1,0,0,1,.3-.79l4.43-4.56.58-.61,1.53-1.57,3.95-4.08-4.07,4-1.57,1.51-.62.65-4.53,4.38a1.54,1.54,0,0,0-.4.73,1.43,1.43,0,0,0,0,.59s0,.08,0,.12l1.25,4.16a.74.74,0,0,0,.08.18l.1.1s0,0,.08.06a.15.15,0,0,0,.08,0,.36.36,0,0,0,.24.06,1,1,0,0,0,.24,0,.3.3,0,0,0,.18-.14l7.11-6.88.4-.38,1.55-1.51,2-1.94a.59.59,0,0,0,.18-.61Zm0,0L94,7.47l-.06-.16-.1-.1a.57.57,0,0,0-.3-.08.26.26,0,0,0-.12,0,1.09,1.09,0,0,0-.22.1l0,0a.17.17,0,0,1,.12,0,.2.2,0,0,1,.26.16l0,.08s0,.06,0,.08h0a0,0,0,0,1,0,0L95,12.28v0l0,.14a.14.14,0,0,1-.06.16l-2,2-1.55,1.49-.42.42-4.73,4.58-.44.42-.5.5-1.39,1.35a.17.17,0,0,1-.12.06.18.18,0,0,1-.16-.12l-1.23-4.16a.89.89,0,0,1-.06-.22,1,1,0,0,1,.3-.79l4.43-4.56.58-.61,1.53-1.57,3.95-4.08-4.07,4-1.57,1.51-.62.65-4.53,4.38a1.54,1.54,0,0,0-.4.73,1.43,1.43,0,0,0,0,.59s0,.08,0,.12l1.25,4.16a.74.74,0,0,0,.08.18l.1.1s0,0,.08.06a.15.15,0,0,0,.08,0,.36.36,0,0,0,.24.06,1,1,0,0,0,.24,0,.3.3,0,0,0,.18-.14l7.11-6.88.4-.38,1.55-1.51,2-1.94a.59.59,0,0,0,.18-.61Zm0,0L94,7.47l-.06-.16-.1-.1a.57.57,0,0,0-.3-.08.26.26,0,0,0-.12,0,1.09,1.09,0,0,0-.22.1l0,0a.17.17,0,0,1,.12,0,.2.2,0,0,1,.26.16l0,.08s0,.06,0,.08h0a0,0,0,0,1,0,0L95,12.28v0l0,.14a.14.14,0,0,1-.06.16l-2,2-1.55,1.49-.42.42-4.73,4.58-.44.42-.5.5-1.39,1.35a.17.17,0,0,1-.12.06.18.18,0,0,1-.16-.12l-1.23-4.16a.89.89,0,0,1-.06-.22,1,1,0,0,1,.3-.79l4.43-4.56.58-.61,1.53-1.57,3.95-4.08-4.07,4-1.57,1.51-.62.65-4.53,4.38a1.54,1.54,0,0,0-.4.73,1.43,1.43,0,0,0,0,.59s0,.08,0,.12l1.25,4.16a.74.74,0,0,0,.08.18l.1.1s0,0,.08.06a.15.15,0,0,0,.08,0,.36.36,0,0,0,.24.06,1,1,0,0,0,.24,0,.3.3,0,0,0,.18-.14l7.11-6.88.4-.38,1.55-1.51,2-1.94a.59.59,0,0,0,.18-.61Zm0,0L94,7.47l-.06-.16-.1-.1a.57.57,0,0,0-.3-.08.26.26,0,0,0-.12,0,1.09,1.09,0,0,0-.22.1l0,0a.17.17,0,0,1,.12,0,.2.2,0,0,1,.26.16l0,.08s0,.06,0,.08h0a0,0,0,0,1,0,0L95,12.28v0l0,.14a.14.14,0,0,1-.06.16l-2,2-1.55,1.49-.42.42-4.73,4.58-.44.42-.5.5-1.39,1.35a.17.17,0,0,1-.12.06.18.18,0,0,1-.16-.12l-1.23-4.16a.89.89,0,0,1-.06-.22,1,1,0,0,1,.3-.79l4.43-4.56.58-.61,1.53-1.57,3.95-4.08-4.07,4-1.57,1.51-.62.65-4.53,4.38a1.54,1.54,0,0,0-.4.73,1.43,1.43,0,0,0,0,.59s0,.08,0,.12l1.25,4.16a.74.74,0,0,0,.08.18l.1.1s0,0,.08.06a.15.15,0,0,0,.08,0,.36.36,0,0,0,.24.06,1,1,0,0,0,.24,0,.3.3,0,0,0,.18-.14l7.11-6.88.4-.38,1.55-1.51,2-1.94a.59.59,0,0,0,.18-.61Zm0,0L94,7.47l-.06-.16-.1-.1a.57.57,0,0,0-.3-.08.26.26,0,0,0-.12,0,1.09,1.09,0,0,0-.22.1l0,0a.17.17,0,0,1,.12,0,.2.2,0,0,1,.26.16l0,.08s0,.06,0,.08h0a0,0,0,0,1,0,0L95,12.28v0l0,.14a.14.14,0,0,1-.06.16l-2,2-1.55,1.49-.42.42-4.73,4.58-.44.42-.5.5-1.39,1.35a.17.17,0,0,1-.12.06.18.18,0,0,1-.16-.12l-1.23-4.16a.89.89,0,0,1-.06-.22,1,1,0,0,1,.3-.79l4.43-4.56.58-.61,1.53-1.57,3.95-4.08-4.07,4-1.57,1.51-.62.65-4.53,4.38a1.54,1.54,0,0,0-.4.73,1.43,1.43,0,0,0,0,.59s0,.08,0,.12l1.25,4.16a.74.74,0,0,0,.08.18l.1.1s0,0,.08.06a.15.15,0,0,0,.08,0,.36.36,0,0,0,.24.06,1,1,0,0,0,.24,0,.3.3,0,0,0,.18-.14l7.11-6.88.4-.38,1.55-1.51,2-1.94a.59.59,0,0,0,.18-.61Zm0,0L94,7.47l-.06-.16-.1-.1a.57.57,0,0,0-.3-.08.26.26,0,0,0-.12,0,1.09,1.09,0,0,0-.22.1l0,0a.17.17,0,0,1,.12,0,.2.2,0,0,1,.26.16l0,.08s0,.06,0,.08h0a0,0,0,0,1,0,0L95,12.28v0l0,.14a.14.14,0,0,1-.06.16l-2,2-1.55,1.49-.42.42-4.73,4.58-.44.42-.5.5-1.39,1.35a.17.17,0,0,1-.12.06.18.18,0,0,1-.16-.12l-1.23-4.16a.89.89,0,0,1-.06-.22,1,1,0,0,1,.3-.79l4.43-4.56.58-.61,1.53-1.57,3.95-4.08-4.07,4-1.57,1.51-.62.65-4.53,4.38a1.54,1.54,0,0,0-.4.73,1.43,1.43,0,0,0,0,.59s0,.08,0,.12l1.25,4.16a.74.74,0,0,0,.08.18l.1.1s0,0,.08.06a.15.15,0,0,0,.08,0,.36.36,0,0,0,.24.06,1,1,0,0,0,.24,0,.3.3,0,0,0,.18-.14l7.11-6.88.4-.38,1.55-1.51,2-1.94a.59.59,0,0,0,.18-.61Zm0,0L94,7.47l-.06-.16-.1-.1a.57.57,0,0,0-.3-.08.26.26,0,0,0-.12,0,1.09,1.09,0,0,0-.22.1l0,0a.17.17,0,0,1,.12,0,.2.2,0,0,1,.26.16l0,.08s0,.06,0,.08h0a0,0,0,0,1,0,0L95,12.28v0l0,.14a.14.14,0,0,1-.06.16l-2,2-1.55,1.49-.42.42-4.73,4.58-.44.42-.5.5-1.39,1.35a.17.17,0,0,1-.12.06.18.18,0,0,1-.16-.12l-1.23-4.16a.89.89,0,0,1-.06-.22,1,1,0,0,1,.3-.79l4.43-4.56.58-.61,1.53-1.57,3.95-4.08-4.07,4-1.57,1.51-.62.65-4.53,4.38a1.54,1.54,0,0,0-.4.73,1.43,1.43,0,0,0,0,.59s0,.08,0,.12l1.25,4.16a.74.74,0,0,0,.08.18l.1.1s0,0,.08.06a.15.15,0,0,0,.08,0,.36.36,0,0,0,.24.06,1,1,0,0,0,.24,0,.3.3,0,0,0,.18-.14l7.11-6.88.4-.38,1.55-1.51,2-1.94a.59.59,0,0,0,.18-.61Zm0,0L94,7.47l-.06-.16-.1-.1a.57.57,0,0,0-.3-.08.26.26,0,0,0-.12,0,1.09,1.09,0,0,0-.22.1l0,0a.17.17,0,0,1,.12,0,.2.2,0,0,1,.26.16l0,.08s0,.06,0,.08h0a0,0,0,0,1,0,0L95,12.28v0l0,.14a.14.14,0,0,1-.06.16l-2,2-1.55,1.49-.42.42-4.73,4.58-.44.42-.5.5-1.39,1.35a.17.17,0,0,1-.12.06.18.18,0,0,1-.16-.12l-1.23-4.16a.89.89,0,0,1-.06-.22,1,1,0,0,1,.3-.79l4.43-4.56.58-.61,1.53-1.57,3.95-4.08-4.07,4-1.57,1.51-.62.65-4.53,4.38a1.54,1.54,0,0,0-.4.73,1.43,1.43,0,0,0,0,.59s0,.08,0,.12l1.25,4.16a.74.74,0,0,0,.08.18l.1.1s0,0,.08.06a.15.15,0,0,0,.08,0,.36.36,0,0,0,.24.06,1,1,0,0,0,.24,0,.3.3,0,0,0,.18-.14l7.11-6.88.4-.38,1.55-1.51,2-1.94a.59.59,0,0,0,.18-.61Zm0,0L94,7.47l-.06-.16-.1-.1a.57.57,0,0,0-.3-.08.26.26,0,0,0-.12,0,1.09,1.09,0,0,0-.22.1l0,0a.17.17,0,0,1,.12,0,.2.2,0,0,1,.26.16l0,.08s0,.06,0,.08h0a0,0,0,0,1,0,0L95,12.28v0l0,.14a.14.14,0,0,1-.06.16l-2,2-1.55,1.49-.42.42-4.73,4.58-.44.42-.5.5-1.39,1.35a.17.17,0,0,1-.12.06.18.18,0,0,1-.16-.12l-1.23-4.16a.89.89,0,0,1-.06-.22,1,1,0,0,1,.3-.79l4.43-4.56.58-.61,1.53-1.57,3.95-4.08-4.07,4-1.57,1.51-.62.65-4.53,4.38a1.54,1.54,0,0,0-.4.73,1.43,1.43,0,0,0,0,.59s0,.08,0,.12l1.25,4.16a.74.74,0,0,0,.08.18l.1.1s0,0,.08.06a.15.15,0,0,0,.08,0,.36.36,0,0,0,.24.06,1,1,0,0,0,.24,0,.3.3,0,0,0,.18-.14l7.11-6.88.4-.38,1.55-1.51,2-1.94a.59.59,0,0,0,.18-.61Zm0,0L94,7.47l-.06-.16-.1-.1a.57.57,0,0,0-.3-.08.26.26,0,0,0-.12,0,1.09,1.09,0,0,0-.22.1l0,0a.17.17,0,0,1,.12,0,.2.2,0,0,1,.26.16l0,.08s0,.06,0,.08h0a0,0,0,0,1,0,0L95,12.28v0l0,.14a.14.14,0,0,1-.06.16l-2,2-1.55,1.49-.42.42-4.73,4.58-.44.42-.5.5-1.39,1.35a.17.17,0,0,1-.12.06.18.18,0,0,1-.16-.12l-1.23-4.16a.89.89,0,0,1-.06-.22,1,1,0,0,1,.3-.79l4.43-4.56.58-.61,1.53-1.57,3.95-4.08-4.07,4-1.57,1.51-.62.65-4.53,4.38a1.54,1.54,0,0,0-.4.73,1.43,1.43,0,0,0,0,.59s0,.08,0,.12l1.25,4.16a.74.74,0,0,0,.08.18l.1.1s0,0,.08.06a.15.15,0,0,0,.08,0,.36.36,0,0,0,.24.06,1,1,0,0,0,.24,0,.3.3,0,0,0,.18-.14l7.11-6.88.4-.38,1.55-1.51,2-1.94a.59.59,0,0,0,.18-.61Zm0,0L94,7.47l-.06-.16-.1-.1a.57.57,0,0,0-.3-.08.26.26,0,0,0-.12,0,1.09,1.09,0,0,0-.22.1l0,0a.17.17,0,0,1,.12,0,.2.2,0,0,1,.26.16l0,.08s0,.06,0,.08h0a0,0,0,0,1,0,0L95,12.28v0l0,.14a.14.14,0,0,1-.06.16l-2,2-1.55,1.49-.42.42-4.73,4.58-.44.42-.5.5-1.39,1.35a.17.17,0,0,1-.12.06.18.18,0,0,1-.16-.12l-1.23-4.16a.89.89,0,0,1-.06-.22,1,1,0,0,1,.3-.79l4.43-4.56.58-.61,1.53-1.57,3.95-4.08-4.07,4-1.57,1.51-.62.65-4.53,4.38a1.54,1.54,0,0,0-.4.73,1.43,1.43,0,0,0,0,.59s0,.08,0,.12l1.25,4.16a.74.74,0,0,0,.08.18l.1.1s0,0,.08.06a.15.15,0,0,0,.08,0,.36.36,0,0,0,.24.06,1,1,0,0,0,.24,0,.3.3,0,0,0,.18-.14l7.11-6.88.4-.38,1.55-1.51,2-1.94a.59.59,0,0,0,.18-.61Zm0,0L94,7.47l-.06-.16-.1-.1a.57.57,0,0,0-.3-.08.26.26,0,0,0-.12,0,1.09,1.09,0,0,0-.22.1l0,0a.17.17,0,0,1,.12,0,.2.2,0,0,1,.26.16l0,.08s0,.06,0,.08h0a0,0,0,0,1,0,0L95,12.28v0l0,.14a.14.14,0,0,1-.06.16l-2,2-1.55,1.49-.42.42-4.73,4.58-.44.42-.5.5-1.39,1.35a.17.17,0,0,1-.12.06.18.18,0,0,1-.16-.12l-1.23-4.16a.89.89,0,0,1-.06-.22,1,1,0,0,1,.3-.79l4.43-4.56.58-.61,1.53-1.57,3.95-4.08-4.07,4-1.57,1.51-.62.65-4.53,4.38a1.54,1.54,0,0,0-.4.73,1.43,1.43,0,0,0,0,.59s0,.08,0,.12l1.25,4.16a.74.74,0,0,0,.08.18l.1.1s0,0,.08.06a.15.15,0,0,0,.08,0,.36.36,0,0,0,.24.06,1,1,0,0,0,.24,0,.3.3,0,0,0,.18-.14l7.11-6.88.4-.38,1.55-1.51,2-1.94a.59.59,0,0,0,.18-.61Zm0,0L94,7.47l-.06-.16-.1-.1a.57.57,0,0,0-.3-.08.26.26,0,0,0-.12,0,1.09,1.09,0,0,0-.22.1l0,0a.17.17,0,0,1,.12,0,.2.2,0,0,1,.26.16l0,.08s0,.06,0,.08h0a0,0,0,0,1,0,0L95,12.28v0l0,.14a.14.14,0,0,1-.06.16l-2,2-1.55,1.49-.42.42-4.73,4.58-.44.42-.5.5-1.39,1.35a.17.17,0,0,1-.12.06.18.18,0,0,1-.16-.12l-1.23-4.16a.89.89,0,0,1-.06-.22,1,1,0,0,1,.3-.79l4.43-4.56.58-.61,1.53-1.57,3.95-4.08-4.07,4-1.57,1.51-.62.65-4.53,4.38a1.54,1.54,0,0,0-.4.73,1.43,1.43,0,0,0,0,.59s0,.08,0,.12l1.25,4.16a.74.74,0,0,0,.08.18l.1.1s0,0,.08.06a.15.15,0,0,0,.08,0,.36.36,0,0,0,.24.06,1,1,0,0,0,.24,0,.3.3,0,0,0,.18-.14l7.11-6.88.4-.38,1.55-1.51,2-1.94a.59.59,0,0,0,.18-.61Zm0,0L94,7.47l-.06-.16-.1-.1a.57.57,0,0,0-.3-.08.26.26,0,0,0-.12,0,1.09,1.09,0,0,0-.22.1l0,0a.17.17,0,0,1,.12,0,.2.2,0,0,1,.26.16l0,.08s0,.06,0,.08h0a0,0,0,0,1,0,0L95,12.28v0l0,.14a.14.14,0,0,1-.06.16l-2,2-1.55,1.49-.42.42-4.73,4.58-.44.42-.5.5-1.39,1.35a.17.17,0,0,1-.12.06.18.18,0,0,1-.16-.12l-1.23-4.16a.89.89,0,0,1-.06-.22,1,1,0,0,1,.3-.79l4.43-4.56.58-.61,1.53-1.57,3.95-4.08-4.07,4-1.57,1.51-.62.65-4.53,4.38a1.54,1.54,0,0,0-.4.73,1.43,1.43,0,0,0,0,.59s0,.08,0,.12l1.25,4.16a.74.74,0,0,0,.08.18l.1.1s0,0,.08.06a.15.15,0,0,0,.08,0,.36.36,0,0,0,.24.06,1,1,0,0,0,.24,0,.3.3,0,0,0,.18-.14l7.11-6.88.4-.38,1.55-1.51,2-1.94a.59.59,0,0,0,.18-.61Z"/><path class="cls-1" d="M96.31,14.07,86.1,24.31a1.47,1.47,0,0,0,.59,2.45l3.69,1.17a1.47,1.47,0,0,0,1.48-.37l10.21-10.24a1.47,1.47,0,0,0-.59-2.44L97.8,13.71A1.47,1.47,0,0,0,96.31,14.07Z"/><path class="cls-6" d="M102.86,15.79s0-.06,0-.08a1.68,1.68,0,0,0-.18-.44,1.9,1.9,0,0,0-1-.79L98,13.33l-.12,0a2,2,0,0,0-1.25,0,1.87,1.87,0,0,0-.66.42L85.78,24a1.65,1.65,0,0,0-.46.79,1.14,1.14,0,0,0-.06.36,2,2,0,0,0,.1.91,2.16,2.16,0,0,0,.16.3,1.72,1.72,0,0,0,1,.79l3.72,1.19a1.86,1.86,0,0,0,.58.08A1.7,1.7,0,0,0,92.06,28l5.3-5.29,0,0h0l1.53-1.55,3.44-3.47a1.62,1.62,0,0,0,.48-.77,1.27,1.27,0,0,0,.06-.38A1.3,1.3,0,0,0,102.86,15.79ZM96.8,22l-5.25,5.25a1,1,0,0,1-1,.26l-3.68-1.19a.89.89,0,0,1-.42-.24.72.72,0,0,1-.22-.42s0,0,0,0a.08.08,0,0,1,0-.06,1.09,1.09,0,0,1,0-.26.26.26,0,0,1,0-.12v0a.9.9,0,0,1,.28-.54l6.5-6.5v0l1.81-1.82h0l1.89-1.9a.94.94,0,0,1,.68-.3h0a.44.44,0,0,1,.16,0l.16,0,3.68,1.17a.79.79,0,0,1,.42.26.9.9,0,0,1,.24.4.16.16,0,0,1,0,.16.92.92,0,0,1-.26.89Z"/><path class="cls-6" d="M103.22,15l-1.61-.5L98,13.33l-.12,0L97.16,13a.58.58,0,0,0-.32,0,.66.66,0,0,0-.26.14L84.23,25.56a.82.82,0,0,0-.14.22.61.61,0,0,0,.36.73l.36.1,1.71.55,3.72,1.19.77.26a.53.53,0,0,0,.56-.16l.48-.48,5.3-5.29,0,0h0l1.53-1.55,3.44-3.47,1.19-1.19a.78.78,0,0,0,.24-.34A.89.89,0,0,0,103.22,15ZM91.36,27.46a.57.57,0,0,1-.58.14l-.26-.08-3.68-1.19-.75-.22a.48.48,0,0,1-.22-.12.8.8,0,0,1-.1-.18s0-.06,0-.1a1,1,0,0,0,0-.11s0,0,0-.06a.59.59,0,0,1,.16-.38l.54-.54,6.5-6.5v0l1.81-1.82h0l1.89-1.9.18-.2a.54.54,0,0,1,.52-.12h.06l.1,0,.16,0,3.68,1.17.75.24a.48.48,0,0,1,.22.12.4.4,0,0,1,.1.18,1.07,1.07,0,0,1,0,.36.63.63,0,0,1-.12.26Z"/><path class="cls-6" d="M103.36,14.58l-5-1.59-1.13-.36a.91.91,0,0,0-.4,0,.62.62,0,0,0-.42.16s-.06,0-.08.06-.06,0-.1.06l-9.81,9.83-.46.42-2.09,2.1a1.44,1.44,0,0,0-.22.42.29.29,0,0,0,0,.18,1,1,0,0,0,.66,1.07l.12,0L90.9,29a1.37,1.37,0,0,0,.3,0,1,1,0,0,0,.7-.28L97.66,23v0h0l1.51-1.53,4.69-4.68a2.15,2.15,0,0,0,.34-.52A1.34,1.34,0,0,0,103.36,14.58Zm-.08,1.57-.36.32-.28.3a1,1,0,0,0,.22-.4,1,1,0,0,0,0-.59s0-.06,0-.08a.92.92,0,0,0-.56-.57l.38.12.44.14a.27.27,0,0,1,.16.1A.47.47,0,0,1,103.28,16.15Zm-1.27,0-3.89,3.88L96.59,21.6l-.08.08L91,27.16a.15.15,0,0,1-.12,0L86.61,25.8l-.06,0-.32-.1s0,0,0,0,0,0,0,0a.08.08,0,0,1,0-.06s0-.06.06-.08l7-7.06L95,16.58l2.09-2.08a.15.15,0,0,1,.08,0l.12,0L101.93,16s.06,0,.08,0a.16.16,0,0,1,0,.16A.07.07,0,0,1,102,16.17ZM91.66,27.78l-.36.36a.13.13,0,0,1-.14,0l-.5-.18A1,1,0,0,0,91.66,27.78Zm6.06-14.09h0l-.18-.06a.81.81,0,0,0-.3-.06.87.87,0,0,0-.58.26l0,0,0,0,.32-.36s.08,0,.12,0l.5.16.2,0ZM84.53,26.07a.14.14,0,0,1,0-.2l.73-.71.28-.28a.92.92,0,0,0-.22.38A1.06,1.06,0,0,0,86,26.53l-.44-.16-.36-.1-.56-.18S84.57,26.07,84.53,26.07Zm7.11,1.7-.2.1-.1,0s-.06,0-.1,0a.81.81,0,0,1-.3.06h-.12a1.36,1.36,0,0,1-.38-.06l0,0,.06,0,.12,0a1,1,0,0,0,1-.22Z"/><path class="cls-5" d="M82.47,18.31l.19-.19a.92.92,0,0,0-.29.78s0,0,0,0A.56.56,0,0,1,82.47,18.31Z"/><path class="cls-7" d="M86.13,25.18,96.45,14.55a.61.61,0,0,1,.61-.15l.28.09L86.75,25.8H86.5C86.14,25.72,85.91,25.52,86.13,25.18Z"/><path class="cls-8" d="M69.94,53s0,.1,0,.14a2.19,2.19,0,0,0-.08-.38Z"/><path class="cls-8" d="M70.18,54.59h-.12v-.1a8,8,0,0,0-.06-1c0,.1,0,.2,0,.26a.24.24,0,0,0,0,.1,1,1,0,0,1,0,.24,1.37,1.37,0,0,0,0-.28v0a.49.49,0,0,0,0-.18V54a.06.06,0,0,0,0,0v.12A3.21,3.21,0,0,1,70.18,54.59Z"/></svg>
