<?xml version="1.0" standalone="no"?><!DOCTYPE svg PUBLIC "-//W3C//DTD SVG 1.1//EN" "http://www.w3.org/Graphics/SVG/1.1/DTD/svg11.dtd"><svg t="1525313729620" class="icon" style="" viewBox="0 0 1024 1024" version="1.1" xmlns="http://www.w3.org/2000/svg" p-id="3666" xmlns:xlink="http://www.w3.org/1999/xlink" width="26" height="26"><defs><style type="text/css"></style></defs><path d="M512 0C229.6 0 0 229.6 0 512s229.6 512 512 512 512-229.6 512-512S794.4 0 512 0z m175.2 548.8L438.4 795.2c-9.6 9.6-22.4 14.4-35.2 14.4-12.8 0-25.6-4.8-35.2-14.4-19.2-20-19.2-51.2 0.8-70.4l213.6-211.2-212-212.8c-19.2-19.2-19.2-51.2 0-70.4 19.2-19.2 51.2-19.2 70.4 0l247.2 248c4.8 4.8 8 10.4 10.4 16v0.8c7.2 17.6 4 39.2-11.2 53.6z" fill="" p-id="3667"></path></svg>
