<svg id="图层_1" data-name="图层 1" xmlns="http://www.w3.org/2000/svg" viewBox="0 0 40 40"><defs><style>.cls-1{fill:#fff;}</style></defs><title>identifying code</title><path class="cls-1" d="M27,15.41a1.13,1.13,0,0,0-.89-1,20.81,20.81,0,0,1-2.88-.67,10.65,10.65,0,0,1-2.57-1.52,1.17,1.17,0,0,0-1.37,0,6.72,6.72,0,0,1-2.59,1.51,9.57,9.57,0,0,1-2.8.7,1.05,1.05,0,0,0-.88,1s0,2.51,0,4.71c0,4,4.66,7.86,7,7.86s6.28-2.73,6.92-7.8a46.77,46.77,0,0,0,0-4.78Zm-2.54,3.09-4.87,4.64a.66.66,0,0,1-.81.08l-.13-.11L16,20.28a.68.68,0,0,1,0-1,.67.67,0,0,1,.95,0l2.21,2.35,4.39-4.19a.67.67,0,0,1,.95,0,.68.68,0,0,1,0,1"/></svg>