<?xml version="1.0" standalone="no"?><!DOCTYPE svg PUBLIC "-//W3C//DTD SVG 1.1//EN" "http://www.w3.org/Graphics/SVG/1.1/DTD/svg11.dtd"><svg t="1524640425576" class="icon" style="" viewBox="0 0 1024 1024" version="1.1" xmlns="http://www.w3.org/2000/svg" p-id="1500" xmlns:xlink="http://www.w3.org/1999/xlink" width="16" height="16"><defs><style type="text/css"></style></defs><path d="M684.12672 0H339.905182A107.913846 107.913846 0 0 0 236.323643 110.276923v803.446154A106.732308 106.732308 0 0 0 339.905182 1024h344.221538A107.913846 107.913846 0 0 0 787.708258 913.723077V110.276923A107.913846 107.913846 0 0 0 684.12672 0zM460.422105 54.350769h103.187692a17.723077 17.723077 0 0 1 0 35.052308H460.422105a17.723077 17.723077 0 0 1 0-35.052308zM512.015951 968.073846a54.350769 54.350769 0 1 1 51.593846-54.350769A53.563077 53.563077 0 0 1 512.015951 968.073846z m207.163077-201.255384a35.446154 35.446154 0 0 1-35.052308 36.627692H339.905182a36.233846 36.233846 0 0 1-35.052308-36.627692V181.956923a35.446154 35.446154 0 0 1 35.052308-36.627692h344.221538a36.233846 36.233846 0 0 1 35.052308 36.627692v584.861539zM684.12672 0H339.905182A107.913846 107.913846 0 0 0 236.323643 110.276923v803.446154A106.732308 106.732308 0 0 0 339.905182 1024h344.221538A107.913846 107.913846 0 0 0 787.708258 913.723077V110.276923A107.913846 107.913846 0 0 0 684.12672 0zM460.422105 54.350769h103.187692a17.723077 17.723077 0 0 1 0 35.052308H460.422105a17.723077 17.723077 0 0 1 0-35.052308zM512.015951 968.073846a54.350769 54.350769 0 1 1 51.593846-54.350769A53.563077 53.563077 0 0 1 512.015951 968.073846z m207.163077-201.255384a35.446154 35.446154 0 0 1-35.052308 36.627692H339.905182a36.233846 36.233846 0 0 1-35.052308-36.627692V181.956923a35.446154 35.446154 0 0 1 35.052308-36.627692h344.221538a36.233846 36.233846 0 0 1 35.052308 36.627692v584.861539z" p-id="1501"></path></svg>