<?xml version="1.0" standalone="no"?><!DOCTYPE svg PUBLIC "-//W3C//DTD SVG 1.1//EN" "http://www.w3.org/Graphics/SVG/1.1/DTD/svg11.dtd"><svg t="1530244560780" class="icon" style="" viewBox="0 0 1024 1024" version="1.1" xmlns="http://www.w3.org/2000/svg" p-id="3043" xmlns:xlink="http://www.w3.org/1999/xlink" width="25" height="25"><defs><style type="text/css"></style></defs><path d="M972.8 37.546667c-27.306667-20.48-64.853333-34.133333-105.813333-34.133334h-10.24c-20.48 0-37.546667 17.066667-37.546667 34.133334 0 20.48 17.066667 34.133333 37.546667 34.133333h10.24c40.96 0 81.92 23.893333 81.92 61.44v747.52c-3.413333 30.72-34.133333 61.44-68.266667 71.68H153.6c-40.96 0-81.92-40.96-81.92-78.506667V133.12c0-37.546667 44.373333-61.44 81.92-61.44h10.24c20.48 0 37.546667-17.066667 37.546667-34.133333S187.733333 0 167.253333 0h-13.653333c-37.546667 0-75.093333 13.653333-102.4 34.133333C17.066667 58.026667 0 95.573333 0 133.12v740.693333c0 6.826667 0 17.066667 3.413333 23.893334 0 10.24 3.413333 23.893333 6.826667 34.133333 0 3.413333 3.413333 3.413333 3.413333 6.826667 3.413333 6.826667 3.413333 13.653333 6.826667 17.066666 3.413333 3.413333 3.413333 6.826667 6.826667 10.24 3.413333 3.413333 3.413333 6.826667 6.826666 10.24 0 3.413333 3.413333 3.413333 6.826667 6.826667l3.413333 3.413333s3.413333 0 3.413334 3.413334c20.48 20.48 51.2 34.133333 85.333333 34.133333h733.866667c13.653333 0 23.893333 0 37.546666-3.413333 6.826667 0 13.653333-3.413333 20.48-3.413334 3.413333 0 3.413333-3.413333 6.826667-3.413333 3.413333-3.413333 10.24-3.413333 13.653333-6.826667 13.653333-6.826667 23.893333-13.653333 34.133334-20.48 30.72-30.72 44.373333-75.093333 44.373333-112.64V133.12c0-37.546667-17.066667-71.68-51.2-95.573333z" p-id="3044"></path><path d="M484.693333 672.426667c13.653333 17.066667 40.96 17.066667 54.613334 0l208.213333-242.346667c13.653333-17.066667 13.653333-47.786667 0-64.853333s-40.96-17.066667-54.613333 0l-143.36 167.253333V68.266667c0-30.72-13.653333-47.786667-40.96-47.786667s-37.546667 27.306667-37.546667 47.786667v464.213333l-143.36-167.253333c-3.413333-6.826667-13.653333-10.24-23.893333-10.24-3.413333 0-13.653333 6.826667-23.893334 10.24-13.653333 17.066667-13.653333 47.786667 0 64.853333l204.8 242.346667z" p-id="3045"></path></svg>