<?xml version="1.0" standalone="no"?><!DOCTYPE svg PUBLIC "-//W3C//DTD SVG 1.1//EN" "http://www.w3.org/Graphics/SVG/1.1/DTD/svg11.dtd"><svg t="1524642440689" class="icon" style="" viewBox="0 0 1024 1024" version="1.1" xmlns="http://www.w3.org/2000/svg" p-id="1876" xmlns:xlink="http://www.w3.org/1999/xlink" width="16" height="16"><defs><style type="text/css"></style></defs><path d="M847.36 1024H171.52c-58.368 0-105.984-44.544-105.984-99.84V500.224c0-55.296 47.104-99.84 105.984-99.84h26.112v-98.816C197.632 130.048 337.408 0 509.44 0s311.808 130.048 311.808 301.568v99.328h26.112c58.368 0 105.984 44.544 105.984 99.84v423.936c0 54.784-47.616 99.328-105.984 99.328zM464.896 709.12v111.104c0 23.04 19.968 41.984 44.544 41.984s44.544-18.944 44.544-41.984V709.12c26.624-14.336 44.544-41.472 44.544-72.704 0-46.592-39.936-84.48-89.088-84.48-49.152 0-89.088 37.888-89.088 84.48 0 31.232 17.92 58.368 44.544 72.704zM732.16 298.496c0-116.224-99.84-210.944-222.72-210.944s-222.72 94.72-222.72 210.944v101.888h445.44V298.496z" fill="" p-id="1877"></path></svg>