<?xml version="1.0" standalone="no"?><!DOCTYPE svg PUBLIC "-//W3C//DTD SVG 1.1//EN" "http://www.w3.org/Graphics/SVG/1.1/DTD/svg11.dtd"><svg t="1526541386862" class="icon" style="" viewBox="0 0 1024 1024" version="1.1" xmlns="http://www.w3.org/2000/svg" p-id="2078" xmlns:xlink="http://www.w3.org/1999/xlink" width="48" height="48"><defs><style type="text/css"></style></defs><path d="M518.564 62.352c-248.341 0-449.647 201.311-449.647 449.647 0 248.337 201.306 449.647 449.647 449.647 248.332 0 449.647-201.31 449.647-449.647 0-248.336-201.316-449.647-449.647-449.647zM798.744 401.633l-314.654 303.413c-4.18 4.18-8.911 7.466-13.956 9.876-19.761 14.117-47.386 12.318-65.126-5.425l-135.124-135.127c-19.759-19.759-19.759-51.784 0-71.535 19.748-19.76 51.777-19.76 71.535 0l101.45 101.444 284.341-274.188c19.756-19.754 51.786-19.754 71.535 0 19.76 19.755 19.76 51.784 0.002 71.54z" p-id="2079"></path></svg>