<?xml version="1.0" standalone="no"?><!DOCTYPE svg PUBLIC "-//W3C//DTD SVG 1.1//EN" "http://www.w3.org/Graphics/SVG/1.1/DTD/svg11.dtd"><svg t="1525492525529" class="icon" style="" viewBox="0 0 1025 1024" version="1.1" xmlns="http://www.w3.org/2000/svg" p-id="2916" xmlns:xlink="http://www.w3.org/1999/xlink" width="48.046875" height="48"><defs><style type="text/css"></style></defs><path d="M486.4 836.266667c17.066667-8.533333 42.666667-8.533333 59.733333 0l238.933334 119.466666-25.6-281.6c0-25.6 0-42.666667 17.066666-59.733333l179.2-204.8-256-59.733333c-25.6 0-42.666667-17.066667-42.666666-34.133334L520.533333 76.8 384 315.733333c-8.533333 17.066667-25.6 34.133333-42.666667 42.666667l-256 59.733333 179.2 204.8c17.066667 17.066667 25.6 34.133333 17.066667 59.733334l-34.133333 273.066666 238.933333-119.466666z m-213.333333 179.2c-34.133333 17.066667-76.8 0-93.866667-34.133334-8.533333-17.066667-8.533333-25.6-8.533333-42.666666l34.133333-273.066667L17.066667 460.8c-25.6-25.6-25.6-76.8 0-102.4 17.066667-8.533333 25.6-17.066667 42.666666-25.6l256-59.733333L443.733333 34.133333C469.333333 0 512-8.533333 546.133333 8.533333c8.533333 8.533333 25.6 17.066667 25.6 25.6l128 238.933334 256 59.733333c51.2 8.533333 76.8 51.2 68.266667 93.866667 0 17.066667-8.533333 25.6-17.066667 34.133333L819.2 665.6 853.333333 938.666667c0 42.666667-25.6 76.8-68.266666 85.333333-17.066667 0-25.6 0-42.666667-8.533333L512 904.533333l-238.933333 110.933334z" fill="#456eff" p-id="2917"></path></svg>