<?xml version="1.0" standalone="no"?><!DOCTYPE svg PUBLIC "-//W3C//DTD SVG 1.1//EN" "http://www.w3.org/Graphics/SVG/1.1/DTD/svg11.dtd"><svg t="1525492494317" class="icon" style="" viewBox="0 0 1025 1024" version="1.1" xmlns="http://www.w3.org/2000/svg" p-id="2667" xmlns:xlink="http://www.w3.org/1999/xlink" width="48.046875" height="48"><defs><style type="text/css"></style></defs><path d="M1022.136305 425.890127c8.517803-42.589013-17.035605-85.178025-59.624618-85.178025l-255.534076-59.624618L570.69277 42.589013C562.174968 25.553408 553.657165 17.035605 545.139363 8.517803 511.068152-8.517803 468.47914 0 451.443535 42.589013L315.158694 281.087484 59.624618 340.712102c-17.035605 0-25.553408 8.517803-34.07121 17.035605-25.553408 25.553408-25.553408 76.660223 0 102.21363l178.873853 204.427261L170.356051 936.958279c0 17.035605 0 25.553408 8.517802 42.589013 17.035605 34.07121 59.624618 59.624618 93.695828 34.07121L511.068152 902.887069l238.498472 110.731433c17.035605 8.517803 25.553408 8.517803 42.589012 8.517803 42.589013 0 68.14242-42.589013 68.142421-85.178026l-34.071211-272.569681 178.873854-204.427261c8.517803-8.517803 8.517803-17.035605 17.035605-34.07121zM775.120031 613.281783c-8.517803 0-8.517803 8.517803-8.517802 8.517802 0 8.517803-8.517803 8.517803-8.517803 17.035606v34.07121l34.07121 272.569681-247.016273-110.731433H511.068152V76.660223l127.767039 238.498471c8.517803 17.035605 25.553408 34.07121 51.106815 34.07121l255.534076 59.624618-170.356051 204.427261z" fill="#456eff" p-id="2668"></path><path d="M383.301114 315.158694L511.068152 76.660223v749.566623c-8.517803 0-25.553408 0-34.07121 8.517803l-238.498471 119.249235 34.07121-272.569681c0-25.553408 0-42.589013-17.035605-59.624618L76.660223 408.854522l255.534076-59.624618c25.553408 0 42.589013-17.035605 51.106815-34.07121zM783.637834 945.476082l-34.07121-272.569681v-25.553408 25.553408l34.07121 272.569681z" fill="#456eff" p-id="2669"></path><path d="M528.103757 826.226846H511.068152h17.035605z" fill="#FFFFFF" p-id="2670"></path></svg>