<?xml version="1.0" standalone="no"?><!DOCTYPE svg PUBLIC "-//W3C//DTD SVG 1.1//EN" "http://www.w3.org/Graphics/SVG/1.1/DTD/svg11.dtd"><svg t="1525398885398" class="icon" style="" viewBox="0 0 1024 1024" version="1.1" xmlns="http://www.w3.org/2000/svg" p-id="1886" xmlns:xlink="http://www.w3.org/1999/xlink" width="16" height="16"><defs><style type="text/css"></style></defs><path d="M512.384 953.86c-246.953 0-447.139-200.2-447.139-447.14 0-246.943 200.186-447.138 447.139-447.138 246.944 0 447.138 200.195 447.138 447.139 0 246.94-200.194 447.139-447.138 447.139z m0-843.607c-218.962 0-396.468 177.502-396.468 396.468 0 218.962 177.506 396.467 396.468 396.467S908.85 725.683 908.85 506.721 731.346 110.253 512.384 110.253z m229.041 508.58c-6.158 13.193-21.88 18.86-35.073 12.678l-210.116-70.244c-10.05-4.693-15.645-14.9-15.08-25.334-0.127-1.056-0.612-1.933-0.612-3.02V242.658c0-14.586 11.8-26.39 26.386-26.39 14.585 0 26.385 11.804 26.385 26.39v275.727l195.409 65.35c13.217 6.184 18.885 21.88 12.701 35.098z" p-id="1887"></path></svg>