<svg id="图层_1" data-name="图层 1" xmlns="http://www.w3.org/2000/svg" viewBox="0 0 46 46"><defs><style>.cls-1{fill:#456eff;}.cls-2{fill:none;stroke:#000;stroke-miterlimit:10;stroke-width:0.4px;}</style></defs><title>tuijiankecheng</title><path class="cls-1" d="M35.35,12.37H20.45a1.93,1.93,0,0,0-2,1.87V35.51a1.85,1.85,0,0,0,2.79,1.21l5.64-3.2a2,2,0,0,1,1.9,0l5.77,3.23a1.88,1.88,0,0,0,2.79-1.24V14.24A1.93,1.93,0,0,0,35.35,12.37Zm-3,9.63-2,1.81a.35.35,0,0,0-.13.38l.48,2.55a.48.48,0,0,1-.7.47L27.59,26a.58.58,0,0,0-.44,0L24.7,27.22a.48.48,0,0,1-.7-.47l.48-2.55a.42.42,0,0,0-.13-.38l-2-1.81a.44.44,0,0,1,.25-.77l2.73-.39a.49.49,0,0,0,.35-.24l1.2-2.31a.52.52,0,0,1,.89,0L29,20.61a.42.42,0,0,0,.35.24l2.73.39A.44.44,0,0,1,32.34,22Z"/><path class="cls-2" d="M32.21,34.51l-5.77-3.23a2,2,0,0,0-1.9,0l-5.64,3.2a1.85,1.85,0,0,1-2.79-1.21V12a1.93,1.93,0,0,1,2-1.87H33A1.93,1.93,0,0,1,35,12V33.27A1.88,1.88,0,0,1,32.21,34.51Z"/><rect class="cls-1" x="1" y="16.46" width="7.08" height="1"/><rect class="cls-1" x="1.06" y="16.46" width="6.97" height="1.01" transform="translate(21.5 12.42) rotate(90)"/><rect class="cls-1" x="8.08" y="25.42" width="5.06" height="1"/><rect class="cls-1" x="8.12" y="25.41" width="4.98" height="1.01" transform="translate(36.53 15.31) rotate(90)"/><rect class="cls-1" x="38.98" y="11.48" width="5.97" height="1.01" transform="translate(53.95 -29.98) rotate(90)"/><rect class="cls-1" x="38.93" y="11.49" width="6.07" height="1" transform="translate(83.93 23.97) rotate(180)"/></svg>