<?xml version="1.0" standalone="no"?><!DOCTYPE svg PUBLIC "-//W3C//DTD SVG 1.1//EN" "http://www.w3.org/Graphics/SVG/1.1/DTD/svg11.dtd"><svg t="1529053179560" class="icon" style="" viewBox="0 0 1024 1024" version="1.1" xmlns="http://www.w3.org/2000/svg" p-id="1899" xmlns:xlink="http://www.w3.org/1999/xlink" width="48" height="48"><defs><style type="text/css"></style></defs><path d="M1002.057143 7.314286c-21.942857-7.314286-36.571429-7.314286-43.885714 0L29.257143 468.114286c-21.942857 0-29.257143 21.942857-29.257143 36.571428 0 21.942857 7.314286 36.571429 21.942857 36.571429l226.742857 138.971428c21.942857 7.314286 36.571429 7.314286 58.514286-7.314285l490.057143-446.171429 21.942857 7.314286L365.714286 709.485714c-14.628571 7.314286-14.628571 21.942857-14.628572 29.257143v204.8c0 21.942857 7.314286 36.571429 29.257143 43.885714 21.942857 7.314286 36.571429 0 43.885714-7.314285l109.714286-109.714286 226.742857 146.285714c7.314286 7.314286 21.942857 7.314286 29.257143 7.314286h21.942857c21.942857-7.314286 29.257143-21.942857 29.257143-36.571429L1024 65.828571c0-29.257143 0-51.2-21.942857-58.514285z" p-id="1900"></path></svg>