<?xml version="1.0" standalone="no"?><!DOCTYPE svg PUBLIC "-//W3C//DTD SVG 1.1//EN" "http://www.w3.org/Graphics/SVG/1.1/DTD/svg11.dtd"><svg t="1526265189914" class="icon" style="" viewBox="0 0 1024 1024" version="1.1" xmlns="http://www.w3.org/2000/svg" p-id="2203" xmlns:xlink="http://www.w3.org/1999/xlink" width="48" height="48"><defs><style type="text/css"></style></defs><path d="M986.642759 632.019981c-37.013499-138.187434-116.295255-244.862195-240.226578-317.412781-14.248173-8.334586-29.298054-15.280074-43.998676-22.884391 0.10319-0.214318 0.166692-0.682642 0.436574-0.936649 2.476563-2.38131 5.000752-4.707057 7.477314-7.080429 25.495895-24.376679 48.412037-52.57933 60.366215-85.846234 5.802459-16.129408 7.231245-23.146336 11.25566-38.124777 7.49319-47.276946-1.111278-76.019361-29.210739-99.911841-37.966023-32.290567-81.043925-36.116539-126.534889-17.153371-3.159205 1.309721-5.254758 2.270182-8.398088-0.706456-58.572294-55.405152-152.602298-55.921102-211.571478-1.222406-2.754382 2.55594-4.738807 3.198893-8.31871 1.55579-23.92423-11.009591-48.943863-13.375026-74.60645-8.064704-48.650168 10.057067-88.894312 51.460114-81.758319 108.000357 6.191407 49.062929 25.2022 91.513753 57.976967 128.106554 6.723233 7.509065 13.875101 14.645058 21.114284 22.249375-1.809796 0.873147-3.587841 1.785983-5.413512 2.619442-167.390235 76.567062-280.462783 242.933334-293.694931 432.168121-3.65928 52.341199-0.603265 104.142635 12.53363 155.459871 20.685648 80.837545 91.767759 141.386327 177.105981 141.187885 201.109588-0.468324 402.227114 0.047626 603.336702-0.269882 64.620822-0.087315 114.350518-29.099611 150.443244-81.917073 18.336089-26.853242 26.908806-57.341951 31.909558-89.283259 11.628732-74.288942 9.223608-147.93493-10.223759-220.533142zM652.735436 760.023345c-5.381761 4.135542-12.208184 6.183469-20.471331 6.183469H545.393907v27.520009c0 8.247271-3.103641 16.264349-9.310923 24.067109-6.199344 7.778947-14.264048 11.231847-24.194112 10.311073-9.922126 0-18.201148-2.524189-24.813253-7.556691-6.620042-5.056315-10.342824-13.986229-11.168345-26.821491v-27.512071H391.513639c-8.271084 0-15.097507-2.524189-20.47133-7.556692-5.381761-5.056315-7.651944-11.231847-6.826423-18.57422 0-8.247271 2.690881-14.899064 8.064704-19.947442a27.162812 27.162812 0 0 1 19.233049-7.564629h84.385698v-48.134218H391.513639c-8.271084 0-14.891127-2.754382-19.85219-8.247271-4.961063-5.500827-7.445563-11.922427-7.445563-19.2648s2.690881-14.208484 8.064704-20.622146c5.381761-6.429538 11.787486-9.628431 19.233049-9.628431h84.385698l1.238281-28.893231a1964.612706 1964.612706 0 0 1-40.958536-46.760996 7542.419205 7542.419205 0 0 1-29.774316-35.759342l-18.613909-19.256863c-4.135542-5.500827-7.858324-13.065456-11.168345-22.685949-3.310021-9.628431-1.651042-19.487056 4.961063-29.575873 7.445563-9.168044 16.542169-11.692233 27.297754-7.564629 10.755585 4.127604 19.439429 9.406175 26.059471 15.819838 3.310021 4.587991 9.104543 11.46204 17.375627 20.630085l59.564507 66.00992a8614.231073 8614.231073 0 0 1 38.466099-39.879009 1828.949462 1828.949462 0 0 1 29.782253-29.575874c9.930064-9.628431 16.970804-16.272287 21.098409-19.939504 7.453501-7.334436 15.716648-11.001653 24.821191-11.001653s16.542169 4.127604 22.33669 12.382813c10.755585 13.756036 6.612105 29.798129-12.406627 48.134218-4.969001 4.580053-12.406626 12.605069-22.33669 24.067109a2205.807684 2205.807684 0 0 1-29.774316 33.69554 899.18275 899.18275 0 0 1-38.474036 42.633391v26.130911h80.654979c11.581106 0 20.05857 2.984576 25.432393 8.937851 5.381761 5.969151 8.080579 12.613007 8.080579 19.947442 0 8.255209-2.4845 15.367389-7.445563 21.328602-4.961063 5.953276-13.232147 8.477464-24.82119 7.556692l-80.654979 1.381159-1.238281 46.760996h79.416697c23.162211 0 34.751254 9.636369 34.751254 28.893231 0.817583 9.160107-1.452599 15.8119-6.83436 19.931567z" p-id="2204"></path></svg>