<?xml version="1.0" standalone="no"?><!DOCTYPE svg PUBLIC "-//W3C//DTD SVG 1.1//EN" "http://www.w3.org/Graphics/SVG/1.1/DTD/svg11.dtd"><svg t="1526265164832" class="icon" style="" viewBox="0 0 1024 1024" version="1.1" xmlns="http://www.w3.org/2000/svg" p-id="2079" xmlns:xlink="http://www.w3.org/1999/xlink" width="48" height="48"><defs><style type="text/css"></style></defs><path d="M700.7232 0H320.9728c-29.0816 0-52.6336 19.2-52.6336 42.9056v72.3968c0 23.6544 23.552 42.8544 52.6336 42.8544h379.7504c29.0816 0 52.5824-19.2 52.5824-42.8544V42.9056c0-23.7056-23.5008-42.9056-52.5824-42.9056z m0 0" fill="" p-id="2080"></path><path d="M993.9456 109.4144c-14.9504-10.9568-35.2768-17.1008-56.5248-17.1008h-94.8736v19.0976c0 24.7296-78.6944 96.0512-112.5376 96.0512H287.4368c-33.8432 0-112.4864-71.3216-112.4864-96.0512v-19.0976H80.0256C35.84 92.3136 0 118.4256 0 150.7328V957.952c0 15.5136 8.448 30.4128 23.4496 41.3696s35.328 17.152 56.5248 17.152h857.3952c21.248 0 41.6256-6.1952 56.5248-17.152 15.0016-10.9568 23.4496-25.856 23.4496-41.3696V150.7328c0.0512-15.5136-8.3968-30.3616-23.3984-41.3184zM256.0512 874.4448H120.064v-113.2032h135.9872v113.2032z m0-206.8992H120.064v-113.2032h135.9872v113.2032z m0-207.0016H120.064V347.4432h135.9872v113.1008z m641.024 413.9008H400.8448v-113.2032h496.1792v113.2032z m0-206.8992H400.8448v-113.2032h496.1792v113.2032z m0-207.0016H400.8448V347.4432h496.1792v113.1008z" fill="" p-id="2081"></path></svg>