<?xml version="1.0" standalone="no"?><!DOCTYPE svg PUBLIC "-//W3C//DTD SVG 1.1//EN" "http://www.w3.org/Graphics/SVG/1.1/DTD/svg11.dtd"><svg t="1526265769354" class="icon" style="" viewBox="0 0 1024 1024" version="1.1" xmlns="http://www.w3.org/2000/svg" p-id="1817" xmlns:xlink="http://www.w3.org/1999/xlink" width="48" height="48"><defs><style type="text/css"></style></defs><path d="M170.638143 643.518157V405.197845a319.893036 319.893036 0 0 1 298.566833-319.893035V43.18556a42.652405 42.652405 0 1 1 85.30481 0v43.18556a319.893036 319.893036 0 0 1 298.566833 319.893035V639.786072l85.30481 173.275394V853.048095a42.652405 42.652405 0 0 1-42.11925 42.11925H127.452583A42.652405 42.652405 0 0 1 85.333333 853.048095v-44.25187z m220.726195 294.834748h241.519242a127.957214 127.957214 0 0 1-241.519242 0z" fill="" p-id="1818"></path><path d="M170.638143 643.518157V405.197845a319.893036 319.893036 0 0 1 298.566833-319.893035V43.18556a42.652405 42.652405 0 1 1 85.30481 0v43.18556a319.893036 319.893036 0 0 1 298.566833 319.893035V639.786072l85.30481 173.275394V853.048095a42.652405 42.652405 0 0 1-42.11925 42.11925H127.452583A42.652405 42.652405 0 0 1 85.333333 853.048095v-44.25187z m220.726195 294.834748h241.519242a127.957214 127.957214 0 0 1-241.519242 0z" fill="" p-id="1819"></path></svg>
