<?xml version="1.0" standalone="no"?><!DOCTYPE svg PUBLIC "-//W3C//DTD SVG 1.1//EN" "http://www.w3.org/Graphics/SVG/1.1/DTD/svg11.dtd"><svg t="1526264942688" class="icon" style="" viewBox="0 0 1024 1024" version="1.1" xmlns="http://www.w3.org/2000/svg" p-id="1956" xmlns:xlink="http://www.w3.org/1999/xlink" width="48" height="48"><defs><style type="text/css"></style></defs><path d="M 827.5 67.7 h -80.3 v 373 l -89.9 -66 l -89.9 66 v -373 H 197.9 c -53 0 -96.4 43.4 -96.4 96.4 v 693.8 c 0 53 43.4 96.4 96.4 96.4 h 629.5 c 53 0 96.4 -43.4 96.4 -96.4 V 164 c 0 -53 -43.3 -96.3 -96.3 -96.3 Z m -578.2 720 c 0 21.2 -14.5 38.5 -32.1 38.5 c -17.7 0 -32.1 -17.3 -32.1 -38.5 V 234.2 c 0 -21.2 14.5 -38.5 32.1 -38.5 c 17.7 0 32.1 17.3 32.1 38.5 v 553.5 Z" fill="" p-id="1957"></path></svg>
