<?xml version="1.0" standalone="no"?><!DOCTYPE svg PUBLIC "-//W3C//DTD SVG 1.1//EN" "http://www.w3.org/Graphics/SVG/1.1/DTD/svg11.dtd"><svg t="1528277129346" class="icon" style="" viewBox="0 0 1690 1024" version="1.1" xmlns="http://www.w3.org/2000/svg" p-id="1953" xmlns:xlink="http://www.w3.org/1999/xlink" width="79.21875" height="48"><defs><style type="text/css"></style></defs><path d="M669.697024 512a175.786667 175.786667 0 1 0 351.573333 0 175.786667 175.786667 0 1 0-351.573333 0Z" p-id="1954"></path><path d="M1664.683691 433.493333C1548.630357 290.133333 1209.003691 0 830.123691 0 446.123691 0 126.977024 296.96 22.870357 438.613333c-29.013333 39.253333-30.72 92.16-3.413333 133.12C118.443691 716.8 427.350357 1024 830.123691 1024c397.653333 0 727.04-298.666667 836.266666-447.146667 32.426667-42.666667 30.72-102.4-1.706666-143.36zM836.950357 873.813333c-199.68 0-361.813333-162.133333-361.813333-361.813333S637.270357 150.186667 836.950357 150.186667 1198.763691 312.32 1198.763691 512 1036.630357 873.813333 836.950357 873.813333z" p-id="1955"></path><path d="M669.697024 512a175.786667 175.786667 0 1 0 351.573333 0 175.786667 175.786667 0 1 0-351.573333 0Z" p-id="1956"></path><path d="M669.697024 512a175.786667 175.786667 0 1 0 351.573333 0 175.786667 175.786667 0 1 0-351.573333 0Z" p-id="1957"></path></svg>