<?xml version="1.0" standalone="no"?><!DOCTYPE svg PUBLIC "-//W3C//DTD SVG 1.1//EN" "http://www.w3.org/Graphics/SVG/1.1/DTD/svg11.dtd"><svg t="1530165854163" class="icon" style="" viewBox="0 0 1024 1024" version="1.1" xmlns="http://www.w3.org/2000/svg" p-id="2443" xmlns:xlink="http://www.w3.org/1999/xlink" width="25" height="25"><defs><style type="text/css"></style></defs><path d="M578.56 512c-12.8 0-23.04 10.24-23.04 23.04 0 10.24 12.8 20.48 23.04 20.48 17.92 0 30.72-10.24 30.72-20.48 0-12.8-12.8-23.04-30.72-23.04z m-76.8-112.64c17.92 0 30.72-12.8 30.72-28.16 0-17.92-12.8-28.16-30.72-28.16s-33.28 10.24-33.28 28.16c0 15.36 17.92 28.16 33.28 28.16zM512 0C230.4 0 0 230.4 0 512s230.4 512 512 512 512-230.4 512-512S793.6 0 512 0z m-97.28 642.56c-30.72 0-53.76-5.12-81.92-12.8l-84.48 43.52 23.04-71.68C212.48 558.08 179.2 504.32 179.2 440.32c0-112.64 107.52-199.68 238.08-199.68 115.2 0 217.6 69.12 238.08 166.4-7.68-2.56-15.36-2.56-23.04-2.56-112.64 0-202.24 84.48-202.24 186.88 0 17.92 2.56 33.28 7.68 51.2h-23.04z m348.16 81.92l17.92 58.88-64-35.84c-23.04 5.12-48.64 12.8-71.68 12.8-112.64 0-199.68-76.8-199.68-171.52s89.6-171.52 199.68-171.52c104.96 0 202.24 76.8 202.24 171.52-2.56 53.76-38.4 99.84-84.48 135.68z m-424.96-384c-17.92 0-35.84 10.24-35.84 28.16 0 17.92 17.92 28.16 35.84 28.16s30.72-12.8 30.72-28.16c0-17.92-15.36-28.16-30.72-28.16zM711.68 512c-12.8 0-23.04 10.24-23.04 23.04 0 10.24 10.24 20.48 23.04 20.48 17.92 0 28.16-10.24 28.16-20.48 0-12.8-12.8-23.04-28.16-23.04z" p-id="2444"></path></svg>